<mxfile host="65bd71144e">
    <diagram name="Page-1" id="DGmO8GduOCFtWfLU1dSU">
        <mxGraphModel dx="1305" dy="678" grid="1" gridSize="10" guides="1" tooltips="1" connect="1" arrows="1" fold="1" page="1" pageScale="1" pageWidth="850" pageHeight="1100" math="0" shadow="0">
            <root>
                <mxCell id="0"/>
                <mxCell id="1" parent="0"/>
                <mxCell id="hs2vC7QU2Vt1_Hw0ZblQ-228" value="" style="verticalLabelPosition=bottom;verticalAlign=top;html=1;shape=mxgraph.basic.rect;fillColor2=none;strokeWidth=2;size=20;indent=5;fillColor=none;dashed=1;dashPattern=8 8;strokeColor=#6c8ebf;" parent="1" vertex="1">
                    <mxGeometry x="197" y="762" width="352" height="167" as="geometry"/>
                </mxCell>
                <mxCell id="hs2vC7QU2Vt1_Hw0ZblQ-1" value="Input space dimensions" style="shape=table;startSize=30;container=1;collapsible=0;childLayout=tableLayout;strokeColor=default;fontSize=16;" parent="1" vertex="1">
                    <mxGeometry x="134" y="220" width="420" height="230" as="geometry"/>
                </mxCell>
                <mxCell id="hs2vC7QU2Vt1_Hw0ZblQ-2" value="" style="shape=tableRow;horizontal=0;startSize=0;swimlaneHead=0;swimlaneBody=0;strokeColor=inherit;top=0;left=0;bottom=0;right=0;collapsible=0;dropTarget=0;fillColor=none;points=[[0,0.5],[1,0.5]];portConstraint=eastwest;fontSize=16;" parent="hs2vC7QU2Vt1_Hw0ZblQ-1" vertex="1">
                    <mxGeometry y="30" width="420" height="29" as="geometry"/>
                </mxCell>
                <mxCell id="hs2vC7QU2Vt1_Hw0ZblQ-214" value="" style="shape=partialRectangle;html=1;whiteSpace=wrap;connectable=0;strokeColor=inherit;overflow=hidden;fillColor=none;top=0;left=0;bottom=0;right=0;pointerEvents=1;fontSize=16;" parent="hs2vC7QU2Vt1_Hw0ZblQ-2" vertex="1">
                    <mxGeometry width="60" height="29" as="geometry">
                        <mxRectangle width="60" height="29" as="alternateBounds"/>
                    </mxGeometry>
                </mxCell>
                <mxCell id="hs2vC7QU2Vt1_Hw0ZblQ-44" value="&lt;b&gt;x1&lt;/b&gt;" style="shape=partialRectangle;html=1;whiteSpace=wrap;connectable=0;strokeColor=inherit;overflow=hidden;fillColor=none;top=0;left=0;bottom=0;right=0;pointerEvents=1;fontSize=16;" parent="hs2vC7QU2Vt1_Hw0ZblQ-2" vertex="1">
                    <mxGeometry x="60" width="60" height="29" as="geometry">
                        <mxRectangle width="60" height="29" as="alternateBounds"/>
                    </mxGeometry>
                </mxCell>
                <mxCell id="hs2vC7QU2Vt1_Hw0ZblQ-14" value="&lt;b&gt;x2&lt;sub&gt;o&lt;/sub&gt;&lt;/b&gt;" style="shape=partialRectangle;html=1;whiteSpace=wrap;connectable=0;strokeColor=inherit;overflow=hidden;fillColor=none;top=0;left=0;bottom=0;right=0;pointerEvents=1;fontSize=16;" parent="hs2vC7QU2Vt1_Hw0ZblQ-2" vertex="1">
                    <mxGeometry x="120" width="60" height="29" as="geometry">
                        <mxRectangle width="60" height="29" as="alternateBounds"/>
                    </mxGeometry>
                </mxCell>
                <mxCell id="hs2vC7QU2Vt1_Hw0ZblQ-3" value="&lt;b&gt;x2&lt;/b&gt;" style="shape=partialRectangle;html=1;whiteSpace=wrap;connectable=0;strokeColor=inherit;overflow=hidden;fillColor=none;top=0;left=0;bottom=0;right=0;pointerEvents=1;fontSize=16;" parent="hs2vC7QU2Vt1_Hw0ZblQ-2" vertex="1">
                    <mxGeometry x="180" width="60" height="29" as="geometry">
                        <mxRectangle width="60" height="29" as="alternateBounds"/>
                    </mxGeometry>
                </mxCell>
                <mxCell id="hs2vC7QU2Vt1_Hw0ZblQ-4" value="&lt;b&gt;x3&lt;/b&gt;" style="shape=partialRectangle;html=1;whiteSpace=wrap;connectable=0;strokeColor=inherit;overflow=hidden;fillColor=none;top=0;left=0;bottom=0;right=0;pointerEvents=1;fontSize=16;" parent="hs2vC7QU2Vt1_Hw0ZblQ-2" vertex="1">
                    <mxGeometry x="240" width="60" height="29" as="geometry">
                        <mxRectangle width="60" height="29" as="alternateBounds"/>
                    </mxGeometry>
                </mxCell>
                <mxCell id="hs2vC7QU2Vt1_Hw0ZblQ-5" value="&lt;b&gt;x3_1&lt;/b&gt;" style="shape=partialRectangle;html=1;whiteSpace=wrap;connectable=0;strokeColor=inherit;overflow=hidden;fillColor=none;top=0;left=0;bottom=0;right=0;pointerEvents=1;fontSize=16;" parent="hs2vC7QU2Vt1_Hw0ZblQ-2" vertex="1">
                    <mxGeometry x="300" width="60" height="29" as="geometry">
                        <mxRectangle width="60" height="29" as="alternateBounds"/>
                    </mxGeometry>
                </mxCell>
                <mxCell id="hs2vC7QU2Vt1_Hw0ZblQ-17" value="&lt;b&gt;x3_2&lt;/b&gt;" style="shape=partialRectangle;html=1;whiteSpace=wrap;connectable=0;strokeColor=inherit;overflow=hidden;fillColor=none;top=0;left=0;bottom=0;right=0;pointerEvents=1;fontSize=16;" parent="hs2vC7QU2Vt1_Hw0ZblQ-2" vertex="1">
                    <mxGeometry x="360" width="60" height="29" as="geometry">
                        <mxRectangle width="60" height="29" as="alternateBounds"/>
                    </mxGeometry>
                </mxCell>
                <mxCell id="hs2vC7QU2Vt1_Hw0ZblQ-6" value="" style="shape=tableRow;horizontal=0;startSize=0;swimlaneHead=0;swimlaneBody=0;strokeColor=inherit;top=0;left=0;bottom=0;right=0;collapsible=0;dropTarget=0;fillColor=none;points=[[0,0.5],[1,0.5]];portConstraint=eastwest;fontSize=16;" parent="hs2vC7QU2Vt1_Hw0ZblQ-1" vertex="1">
                    <mxGeometry y="59" width="420" height="28" as="geometry"/>
                </mxCell>
                <mxCell id="hs2vC7QU2Vt1_Hw0ZblQ-215" value="a" style="shape=partialRectangle;html=1;whiteSpace=wrap;connectable=0;strokeColor=inherit;overflow=hidden;fillColor=none;top=0;left=0;bottom=0;right=0;pointerEvents=1;fontSize=16;" parent="hs2vC7QU2Vt1_Hw0ZblQ-6" vertex="1">
                    <mxGeometry width="60" height="28" as="geometry">
                        <mxRectangle width="60" height="28" as="alternateBounds"/>
                    </mxGeometry>
                </mxCell>
                <mxCell id="hs2vC7QU2Vt1_Hw0ZblQ-45" style="shape=partialRectangle;html=1;whiteSpace=wrap;connectable=0;strokeColor=inherit;overflow=hidden;fillColor=none;top=0;left=0;bottom=0;right=0;pointerEvents=1;fontSize=16;" parent="hs2vC7QU2Vt1_Hw0ZblQ-6" vertex="1">
                    <mxGeometry x="60" width="60" height="28" as="geometry">
                        <mxRectangle width="60" height="28" as="alternateBounds"/>
                    </mxGeometry>
                </mxCell>
                <mxCell id="hs2vC7QU2Vt1_Hw0ZblQ-15" value="0" style="shape=partialRectangle;html=1;whiteSpace=wrap;connectable=0;strokeColor=inherit;overflow=hidden;fillColor=none;top=0;left=0;bottom=0;right=0;pointerEvents=1;fontSize=16;" parent="hs2vC7QU2Vt1_Hw0ZblQ-6" vertex="1">
                    <mxGeometry x="120" width="60" height="28" as="geometry">
                        <mxRectangle width="60" height="28" as="alternateBounds"/>
                    </mxGeometry>
                </mxCell>
                <mxCell id="hs2vC7QU2Vt1_Hw0ZblQ-7" value="-" style="shape=partialRectangle;html=1;whiteSpace=wrap;connectable=0;strokeColor=inherit;overflow=hidden;fillColor=none;top=0;left=0;bottom=0;right=0;pointerEvents=1;fontSize=16;" parent="hs2vC7QU2Vt1_Hw0ZblQ-6" vertex="1">
                    <mxGeometry x="180" width="60" height="28" as="geometry">
                        <mxRectangle width="60" height="28" as="alternateBounds"/>
                    </mxGeometry>
                </mxCell>
                <mxCell id="hs2vC7QU2Vt1_Hw0ZblQ-8" value="0" style="shape=partialRectangle;html=1;whiteSpace=wrap;connectable=0;strokeColor=inherit;overflow=hidden;fillColor=none;top=0;left=0;bottom=0;right=0;pointerEvents=1;fontSize=16;" parent="hs2vC7QU2Vt1_Hw0ZblQ-6" vertex="1">
                    <mxGeometry x="240" width="60" height="28" as="geometry">
                        <mxRectangle width="60" height="28" as="alternateBounds"/>
                    </mxGeometry>
                </mxCell>
                <mxCell id="hs2vC7QU2Vt1_Hw0ZblQ-9" value="-" style="shape=partialRectangle;html=1;whiteSpace=wrap;connectable=0;strokeColor=inherit;overflow=hidden;fillColor=none;top=0;left=0;bottom=0;right=0;pointerEvents=1;fontSize=16;" parent="hs2vC7QU2Vt1_Hw0ZblQ-6" vertex="1">
                    <mxGeometry x="300" width="60" height="28" as="geometry">
                        <mxRectangle width="60" height="28" as="alternateBounds"/>
                    </mxGeometry>
                </mxCell>
                <mxCell id="hs2vC7QU2Vt1_Hw0ZblQ-18" value="-" style="shape=partialRectangle;html=1;whiteSpace=wrap;connectable=0;strokeColor=inherit;overflow=hidden;fillColor=none;top=0;left=0;bottom=0;right=0;pointerEvents=1;fontSize=16;" parent="hs2vC7QU2Vt1_Hw0ZblQ-6" vertex="1">
                    <mxGeometry x="360" width="60" height="28" as="geometry">
                        <mxRectangle width="60" height="28" as="alternateBounds"/>
                    </mxGeometry>
                </mxCell>
                <mxCell id="hs2vC7QU2Vt1_Hw0ZblQ-10" value="" style="shape=tableRow;horizontal=0;startSize=0;swimlaneHead=0;swimlaneBody=0;strokeColor=inherit;top=0;left=0;bottom=0;right=0;collapsible=0;dropTarget=0;fillColor=none;points=[[0,0.5],[1,0.5]];portConstraint=eastwest;fontSize=16;" parent="hs2vC7QU2Vt1_Hw0ZblQ-1" vertex="1">
                    <mxGeometry y="87" width="420" height="29" as="geometry"/>
                </mxCell>
                <mxCell id="hs2vC7QU2Vt1_Hw0ZblQ-216" value="b" style="shape=partialRectangle;html=1;whiteSpace=wrap;connectable=0;strokeColor=inherit;overflow=hidden;fillColor=none;top=0;left=0;bottom=0;right=0;pointerEvents=1;fontSize=16;" parent="hs2vC7QU2Vt1_Hw0ZblQ-10" vertex="1">
                    <mxGeometry width="60" height="29" as="geometry">
                        <mxRectangle width="60" height="29" as="alternateBounds"/>
                    </mxGeometry>
                </mxCell>
                <mxCell id="hs2vC7QU2Vt1_Hw0ZblQ-46" style="shape=partialRectangle;html=1;whiteSpace=wrap;connectable=0;strokeColor=inherit;overflow=hidden;fillColor=none;top=0;left=0;bottom=0;right=0;pointerEvents=1;fontSize=16;" parent="hs2vC7QU2Vt1_Hw0ZblQ-10" vertex="1">
                    <mxGeometry x="60" width="60" height="29" as="geometry">
                        <mxRectangle width="60" height="29" as="alternateBounds"/>
                    </mxGeometry>
                </mxCell>
                <mxCell id="hs2vC7QU2Vt1_Hw0ZblQ-16" value="1" style="shape=partialRectangle;html=1;whiteSpace=wrap;connectable=0;strokeColor=inherit;overflow=hidden;fillColor=none;top=0;left=0;bottom=0;right=0;pointerEvents=1;fontSize=16;" parent="hs2vC7QU2Vt1_Hw0ZblQ-10" vertex="1">
                    <mxGeometry x="120" width="60" height="29" as="geometry">
                        <mxRectangle width="60" height="29" as="alternateBounds"/>
                    </mxGeometry>
                </mxCell>
                <mxCell id="hs2vC7QU2Vt1_Hw0ZblQ-11" value="" style="shape=partialRectangle;html=1;whiteSpace=wrap;connectable=0;strokeColor=inherit;overflow=hidden;fillColor=none;top=0;left=0;bottom=0;right=0;pointerEvents=1;fontSize=16;" parent="hs2vC7QU2Vt1_Hw0ZblQ-10" vertex="1">
                    <mxGeometry x="180" width="60" height="29" as="geometry">
                        <mxRectangle width="60" height="29" as="alternateBounds"/>
                    </mxGeometry>
                </mxCell>
                <mxCell id="hs2vC7QU2Vt1_Hw0ZblQ-12" value="0" style="shape=partialRectangle;html=1;whiteSpace=wrap;connectable=0;strokeColor=inherit;overflow=hidden;fillColor=none;top=0;left=0;bottom=0;right=0;pointerEvents=1;fontSize=16;" parent="hs2vC7QU2Vt1_Hw0ZblQ-10" vertex="1">
                    <mxGeometry x="240" width="60" height="29" as="geometry">
                        <mxRectangle width="60" height="29" as="alternateBounds"/>
                    </mxGeometry>
                </mxCell>
                <mxCell id="hs2vC7QU2Vt1_Hw0ZblQ-13" value="-" style="shape=partialRectangle;html=1;whiteSpace=wrap;connectable=0;strokeColor=inherit;overflow=hidden;fillColor=none;top=0;left=0;bottom=0;right=0;pointerEvents=1;fontSize=16;" parent="hs2vC7QU2Vt1_Hw0ZblQ-10" vertex="1">
                    <mxGeometry x="300" width="60" height="29" as="geometry">
                        <mxRectangle width="60" height="29" as="alternateBounds"/>
                    </mxGeometry>
                </mxCell>
                <mxCell id="hs2vC7QU2Vt1_Hw0ZblQ-19" value="-" style="shape=partialRectangle;html=1;whiteSpace=wrap;connectable=0;strokeColor=inherit;overflow=hidden;fillColor=none;top=0;left=0;bottom=0;right=0;pointerEvents=1;fontSize=16;" parent="hs2vC7QU2Vt1_Hw0ZblQ-10" vertex="1">
                    <mxGeometry x="360" width="60" height="29" as="geometry">
                        <mxRectangle width="60" height="29" as="alternateBounds"/>
                    </mxGeometry>
                </mxCell>
                <mxCell id="hs2vC7QU2Vt1_Hw0ZblQ-20" style="shape=tableRow;horizontal=0;startSize=0;swimlaneHead=0;swimlaneBody=0;strokeColor=inherit;top=0;left=0;bottom=0;right=0;collapsible=0;dropTarget=0;fillColor=none;points=[[0,0.5],[1,0.5]];portConstraint=eastwest;fontSize=16;" parent="hs2vC7QU2Vt1_Hw0ZblQ-1" vertex="1">
                    <mxGeometry y="116" width="420" height="28" as="geometry"/>
                </mxCell>
                <mxCell id="hs2vC7QU2Vt1_Hw0ZblQ-217" value="a" style="shape=partialRectangle;html=1;whiteSpace=wrap;connectable=0;strokeColor=inherit;overflow=hidden;fillColor=none;top=0;left=0;bottom=0;right=0;pointerEvents=1;fontSize=16;" parent="hs2vC7QU2Vt1_Hw0ZblQ-20" vertex="1">
                    <mxGeometry width="60" height="28" as="geometry">
                        <mxRectangle width="60" height="28" as="alternateBounds"/>
                    </mxGeometry>
                </mxCell>
                <mxCell id="hs2vC7QU2Vt1_Hw0ZblQ-47" style="shape=partialRectangle;html=1;whiteSpace=wrap;connectable=0;strokeColor=inherit;overflow=hidden;fillColor=none;top=0;left=0;bottom=0;right=0;pointerEvents=1;fontSize=16;" parent="hs2vC7QU2Vt1_Hw0ZblQ-20" vertex="1">
                    <mxGeometry x="60" width="60" height="28" as="geometry">
                        <mxRectangle width="60" height="28" as="alternateBounds"/>
                    </mxGeometry>
                </mxCell>
                <mxCell id="hs2vC7QU2Vt1_Hw0ZblQ-21" value="0" style="shape=partialRectangle;html=1;whiteSpace=wrap;connectable=0;strokeColor=inherit;overflow=hidden;fillColor=none;top=0;left=0;bottom=0;right=0;pointerEvents=1;fontSize=16;" parent="hs2vC7QU2Vt1_Hw0ZblQ-20" vertex="1">
                    <mxGeometry x="120" width="60" height="28" as="geometry">
                        <mxRectangle width="60" height="28" as="alternateBounds"/>
                    </mxGeometry>
                </mxCell>
                <mxCell id="hs2vC7QU2Vt1_Hw0ZblQ-22" value="-" style="shape=partialRectangle;html=1;whiteSpace=wrap;connectable=0;strokeColor=inherit;overflow=hidden;fillColor=none;top=0;left=0;bottom=0;right=0;pointerEvents=1;fontSize=16;" parent="hs2vC7QU2Vt1_Hw0ZblQ-20" vertex="1">
                    <mxGeometry x="180" width="60" height="28" as="geometry">
                        <mxRectangle width="60" height="28" as="alternateBounds"/>
                    </mxGeometry>
                </mxCell>
                <mxCell id="hs2vC7QU2Vt1_Hw0ZblQ-23" value="0" style="shape=partialRectangle;html=1;whiteSpace=wrap;connectable=0;strokeColor=inherit;overflow=hidden;fillColor=none;top=0;left=0;bottom=0;right=0;pointerEvents=1;fontSize=16;" parent="hs2vC7QU2Vt1_Hw0ZblQ-20" vertex="1">
                    <mxGeometry x="240" width="60" height="28" as="geometry">
                        <mxRectangle width="60" height="28" as="alternateBounds"/>
                    </mxGeometry>
                </mxCell>
                <mxCell id="hs2vC7QU2Vt1_Hw0ZblQ-24" value="&lt;div&gt;-&lt;/div&gt;" style="shape=partialRectangle;html=1;whiteSpace=wrap;connectable=0;strokeColor=inherit;overflow=hidden;fillColor=none;top=0;left=0;bottom=0;right=0;pointerEvents=1;fontSize=16;" parent="hs2vC7QU2Vt1_Hw0ZblQ-20" vertex="1">
                    <mxGeometry x="300" width="60" height="28" as="geometry">
                        <mxRectangle width="60" height="28" as="alternateBounds"/>
                    </mxGeometry>
                </mxCell>
                <mxCell id="hs2vC7QU2Vt1_Hw0ZblQ-25" value="-" style="shape=partialRectangle;html=1;whiteSpace=wrap;connectable=0;strokeColor=inherit;overflow=hidden;fillColor=none;top=0;left=0;bottom=0;right=0;pointerEvents=1;fontSize=16;" parent="hs2vC7QU2Vt1_Hw0ZblQ-20" vertex="1">
                    <mxGeometry x="360" width="60" height="28" as="geometry">
                        <mxRectangle width="60" height="28" as="alternateBounds"/>
                    </mxGeometry>
                </mxCell>
                <mxCell id="hs2vC7QU2Vt1_Hw0ZblQ-26" style="shape=tableRow;horizontal=0;startSize=0;swimlaneHead=0;swimlaneBody=0;strokeColor=inherit;top=0;left=0;bottom=0;right=0;collapsible=0;dropTarget=0;fillColor=none;points=[[0,0.5],[1,0.5]];portConstraint=eastwest;fontSize=16;" parent="hs2vC7QU2Vt1_Hw0ZblQ-1" vertex="1">
                    <mxGeometry y="144" width="420" height="29" as="geometry"/>
                </mxCell>
                <mxCell id="hs2vC7QU2Vt1_Hw0ZblQ-218" value="c" style="shape=partialRectangle;html=1;whiteSpace=wrap;connectable=0;strokeColor=inherit;overflow=hidden;fillColor=none;top=0;left=0;bottom=0;right=0;pointerEvents=1;fontSize=16;" parent="hs2vC7QU2Vt1_Hw0ZblQ-26" vertex="1">
                    <mxGeometry width="60" height="29" as="geometry">
                        <mxRectangle width="60" height="29" as="alternateBounds"/>
                    </mxGeometry>
                </mxCell>
                <mxCell id="hs2vC7QU2Vt1_Hw0ZblQ-48" style="shape=partialRectangle;html=1;whiteSpace=wrap;connectable=0;strokeColor=inherit;overflow=hidden;fillColor=none;top=0;left=0;bottom=0;right=0;pointerEvents=1;fontSize=16;" parent="hs2vC7QU2Vt1_Hw0ZblQ-26" vertex="1">
                    <mxGeometry x="60" width="60" height="29" as="geometry">
                        <mxRectangle width="60" height="29" as="alternateBounds"/>
                    </mxGeometry>
                </mxCell>
                <mxCell id="hs2vC7QU2Vt1_Hw0ZblQ-27" value="1" style="shape=partialRectangle;html=1;whiteSpace=wrap;connectable=0;strokeColor=inherit;overflow=hidden;fillColor=none;top=0;left=0;bottom=0;right=0;pointerEvents=1;fontSize=16;" parent="hs2vC7QU2Vt1_Hw0ZblQ-26" vertex="1">
                    <mxGeometry x="120" width="60" height="29" as="geometry">
                        <mxRectangle width="60" height="29" as="alternateBounds"/>
                    </mxGeometry>
                </mxCell>
                <mxCell id="hs2vC7QU2Vt1_Hw0ZblQ-28" style="shape=partialRectangle;html=1;whiteSpace=wrap;connectable=0;strokeColor=inherit;overflow=hidden;fillColor=none;top=0;left=0;bottom=0;right=0;pointerEvents=1;fontSize=16;" parent="hs2vC7QU2Vt1_Hw0ZblQ-26" vertex="1">
                    <mxGeometry x="180" width="60" height="29" as="geometry">
                        <mxRectangle width="60" height="29" as="alternateBounds"/>
                    </mxGeometry>
                </mxCell>
                <mxCell id="hs2vC7QU2Vt1_Hw0ZblQ-29" value="1" style="shape=partialRectangle;html=1;whiteSpace=wrap;connectable=0;strokeColor=inherit;overflow=hidden;fillColor=none;top=0;left=0;bottom=0;right=0;pointerEvents=1;fontSize=16;" parent="hs2vC7QU2Vt1_Hw0ZblQ-26" vertex="1">
                    <mxGeometry x="240" width="60" height="29" as="geometry">
                        <mxRectangle width="60" height="29" as="alternateBounds"/>
                    </mxGeometry>
                </mxCell>
                <mxCell id="hs2vC7QU2Vt1_Hw0ZblQ-30" style="shape=partialRectangle;html=1;whiteSpace=wrap;connectable=0;strokeColor=inherit;overflow=hidden;fillColor=none;top=0;left=0;bottom=0;right=0;pointerEvents=1;fontSize=16;" parent="hs2vC7QU2Vt1_Hw0ZblQ-26" vertex="1">
                    <mxGeometry x="300" width="60" height="29" as="geometry">
                        <mxRectangle width="60" height="29" as="alternateBounds"/>
                    </mxGeometry>
                </mxCell>
                <mxCell id="hs2vC7QU2Vt1_Hw0ZblQ-31" style="shape=partialRectangle;html=1;whiteSpace=wrap;connectable=0;strokeColor=inherit;overflow=hidden;fillColor=none;top=0;left=0;bottom=0;right=0;pointerEvents=1;fontSize=16;" parent="hs2vC7QU2Vt1_Hw0ZblQ-26" vertex="1">
                    <mxGeometry x="360" width="60" height="29" as="geometry">
                        <mxRectangle width="60" height="29" as="alternateBounds"/>
                    </mxGeometry>
                </mxCell>
                <mxCell id="hs2vC7QU2Vt1_Hw0ZblQ-38" style="shape=tableRow;horizontal=0;startSize=0;swimlaneHead=0;swimlaneBody=0;strokeColor=inherit;top=0;left=0;bottom=0;right=0;collapsible=0;dropTarget=0;fillColor=none;points=[[0,0.5],[1,0.5]];portConstraint=eastwest;fontSize=16;" parent="hs2vC7QU2Vt1_Hw0ZblQ-1" vertex="1">
                    <mxGeometry y="173" width="420" height="28" as="geometry"/>
                </mxCell>
                <mxCell id="hs2vC7QU2Vt1_Hw0ZblQ-219" value="d" style="shape=partialRectangle;html=1;whiteSpace=wrap;connectable=0;strokeColor=inherit;overflow=hidden;fillColor=none;top=0;left=0;bottom=0;right=0;pointerEvents=1;fontSize=16;" parent="hs2vC7QU2Vt1_Hw0ZblQ-38" vertex="1">
                    <mxGeometry width="60" height="28" as="geometry">
                        <mxRectangle width="60" height="28" as="alternateBounds"/>
                    </mxGeometry>
                </mxCell>
                <mxCell id="hs2vC7QU2Vt1_Hw0ZblQ-49" style="shape=partialRectangle;html=1;whiteSpace=wrap;connectable=0;strokeColor=inherit;overflow=hidden;fillColor=none;top=0;left=0;bottom=0;right=0;pointerEvents=1;fontSize=16;" parent="hs2vC7QU2Vt1_Hw0ZblQ-38" vertex="1">
                    <mxGeometry x="60" width="60" height="28" as="geometry">
                        <mxRectangle width="60" height="28" as="alternateBounds"/>
                    </mxGeometry>
                </mxCell>
                <mxCell id="hs2vC7QU2Vt1_Hw0ZblQ-39" value="0" style="shape=partialRectangle;html=1;whiteSpace=wrap;connectable=0;strokeColor=inherit;overflow=hidden;fillColor=none;top=0;left=0;bottom=0;right=0;pointerEvents=1;fontSize=16;" parent="hs2vC7QU2Vt1_Hw0ZblQ-38" vertex="1">
                    <mxGeometry x="120" width="60" height="28" as="geometry">
                        <mxRectangle width="60" height="28" as="alternateBounds"/>
                    </mxGeometry>
                </mxCell>
                <mxCell id="hs2vC7QU2Vt1_Hw0ZblQ-40" value="-" style="shape=partialRectangle;html=1;whiteSpace=wrap;connectable=0;strokeColor=inherit;overflow=hidden;fillColor=none;top=0;left=0;bottom=0;right=0;pointerEvents=1;fontSize=16;" parent="hs2vC7QU2Vt1_Hw0ZblQ-38" vertex="1">
                    <mxGeometry x="180" width="60" height="28" as="geometry">
                        <mxRectangle width="60" height="28" as="alternateBounds"/>
                    </mxGeometry>
                </mxCell>
                <mxCell id="hs2vC7QU2Vt1_Hw0ZblQ-41" value="1" style="shape=partialRectangle;html=1;whiteSpace=wrap;connectable=0;strokeColor=inherit;overflow=hidden;fillColor=none;top=0;left=0;bottom=0;right=0;pointerEvents=1;fontSize=16;" parent="hs2vC7QU2Vt1_Hw0ZblQ-38" vertex="1">
                    <mxGeometry x="240" width="60" height="28" as="geometry">
                        <mxRectangle width="60" height="28" as="alternateBounds"/>
                    </mxGeometry>
                </mxCell>
                <mxCell id="hs2vC7QU2Vt1_Hw0ZblQ-42" style="shape=partialRectangle;html=1;whiteSpace=wrap;connectable=0;strokeColor=inherit;overflow=hidden;fillColor=none;top=0;left=0;bottom=0;right=0;pointerEvents=1;fontSize=16;" parent="hs2vC7QU2Vt1_Hw0ZblQ-38" vertex="1">
                    <mxGeometry x="300" width="60" height="28" as="geometry">
                        <mxRectangle width="60" height="28" as="alternateBounds"/>
                    </mxGeometry>
                </mxCell>
                <mxCell id="hs2vC7QU2Vt1_Hw0ZblQ-43" style="shape=partialRectangle;html=1;whiteSpace=wrap;connectable=0;strokeColor=inherit;overflow=hidden;fillColor=none;top=0;left=0;bottom=0;right=0;pointerEvents=1;fontSize=16;" parent="hs2vC7QU2Vt1_Hw0ZblQ-38" vertex="1">
                    <mxGeometry x="360" width="60" height="28" as="geometry">
                        <mxRectangle width="60" height="28" as="alternateBounds"/>
                    </mxGeometry>
                </mxCell>
                <mxCell id="hs2vC7QU2Vt1_Hw0ZblQ-32" style="shape=tableRow;horizontal=0;startSize=0;swimlaneHead=0;swimlaneBody=0;strokeColor=inherit;top=0;left=0;bottom=0;right=0;collapsible=0;dropTarget=0;fillColor=none;points=[[0,0.5],[1,0.5]];portConstraint=eastwest;fontSize=16;" parent="hs2vC7QU2Vt1_Hw0ZblQ-1" vertex="1">
                    <mxGeometry y="201" width="420" height="29" as="geometry"/>
                </mxCell>
                <mxCell id="hs2vC7QU2Vt1_Hw0ZblQ-220" value="c" style="shape=partialRectangle;html=1;whiteSpace=wrap;connectable=0;strokeColor=inherit;overflow=hidden;fillColor=none;top=0;left=0;bottom=0;right=0;pointerEvents=1;fontSize=16;" parent="hs2vC7QU2Vt1_Hw0ZblQ-32" vertex="1">
                    <mxGeometry width="60" height="29" as="geometry">
                        <mxRectangle width="60" height="29" as="alternateBounds"/>
                    </mxGeometry>
                </mxCell>
                <mxCell id="hs2vC7QU2Vt1_Hw0ZblQ-50" style="shape=partialRectangle;html=1;whiteSpace=wrap;connectable=0;strokeColor=inherit;overflow=hidden;fillColor=none;top=0;left=0;bottom=0;right=0;pointerEvents=1;fontSize=16;" parent="hs2vC7QU2Vt1_Hw0ZblQ-32" vertex="1">
                    <mxGeometry x="60" width="60" height="29" as="geometry">
                        <mxRectangle width="60" height="29" as="alternateBounds"/>
                    </mxGeometry>
                </mxCell>
                <mxCell id="hs2vC7QU2Vt1_Hw0ZblQ-33" value="1" style="shape=partialRectangle;html=1;whiteSpace=wrap;connectable=0;strokeColor=inherit;overflow=hidden;fillColor=none;top=0;left=0;bottom=0;right=0;pointerEvents=1;fontSize=16;" parent="hs2vC7QU2Vt1_Hw0ZblQ-32" vertex="1">
                    <mxGeometry x="120" width="60" height="29" as="geometry">
                        <mxRectangle width="60" height="29" as="alternateBounds"/>
                    </mxGeometry>
                </mxCell>
                <mxCell id="hs2vC7QU2Vt1_Hw0ZblQ-34" style="shape=partialRectangle;html=1;whiteSpace=wrap;connectable=0;strokeColor=inherit;overflow=hidden;fillColor=none;top=0;left=0;bottom=0;right=0;pointerEvents=1;fontSize=16;" parent="hs2vC7QU2Vt1_Hw0ZblQ-32" vertex="1">
                    <mxGeometry x="180" width="60" height="29" as="geometry">
                        <mxRectangle width="60" height="29" as="alternateBounds"/>
                    </mxGeometry>
                </mxCell>
                <mxCell id="hs2vC7QU2Vt1_Hw0ZblQ-35" value="1" style="shape=partialRectangle;html=1;whiteSpace=wrap;connectable=0;strokeColor=inherit;overflow=hidden;fillColor=none;top=0;left=0;bottom=0;right=0;pointerEvents=1;fontSize=16;" parent="hs2vC7QU2Vt1_Hw0ZblQ-32" vertex="1">
                    <mxGeometry x="240" width="60" height="29" as="geometry">
                        <mxRectangle width="60" height="29" as="alternateBounds"/>
                    </mxGeometry>
                </mxCell>
                <mxCell id="hs2vC7QU2Vt1_Hw0ZblQ-36" style="shape=partialRectangle;html=1;whiteSpace=wrap;connectable=0;strokeColor=inherit;overflow=hidden;fillColor=none;top=0;left=0;bottom=0;right=0;pointerEvents=1;fontSize=16;" parent="hs2vC7QU2Vt1_Hw0ZblQ-32" vertex="1">
                    <mxGeometry x="300" width="60" height="29" as="geometry">
                        <mxRectangle width="60" height="29" as="alternateBounds"/>
                    </mxGeometry>
                </mxCell>
                <mxCell id="hs2vC7QU2Vt1_Hw0ZblQ-37" style="shape=partialRectangle;html=1;whiteSpace=wrap;connectable=0;strokeColor=inherit;overflow=hidden;fillColor=none;top=0;left=0;bottom=0;right=0;pointerEvents=1;fontSize=16;" parent="hs2vC7QU2Vt1_Hw0ZblQ-32" vertex="1">
                    <mxGeometry x="360" width="60" height="29" as="geometry">
                        <mxRectangle width="60" height="29" as="alternateBounds"/>
                    </mxGeometry>
                </mxCell>
                <mxCell id="hs2vC7QU2Vt1_Hw0ZblQ-51" value="Input space dimensions" style="shape=table;startSize=30;container=1;collapsible=0;childLayout=tableLayout;strokeColor=default;fontSize=16;" parent="1" vertex="1">
                    <mxGeometry x="134" y="700" width="420" height="230" as="geometry"/>
                </mxCell>
                <mxCell id="hs2vC7QU2Vt1_Hw0ZblQ-52" value="" style="shape=tableRow;horizontal=0;startSize=0;swimlaneHead=0;swimlaneBody=0;strokeColor=inherit;top=0;left=0;bottom=0;right=0;collapsible=0;dropTarget=0;fillColor=none;points=[[0,0.5],[1,0.5]];portConstraint=eastwest;fontSize=16;" parent="hs2vC7QU2Vt1_Hw0ZblQ-51" vertex="1">
                    <mxGeometry y="30" width="420" height="29" as="geometry"/>
                </mxCell>
                <mxCell id="hs2vC7QU2Vt1_Hw0ZblQ-221" value="" style="shape=partialRectangle;html=1;whiteSpace=wrap;connectable=0;strokeColor=inherit;overflow=hidden;fillColor=none;top=0;left=0;bottom=0;right=0;pointerEvents=1;fontSize=16;" parent="hs2vC7QU2Vt1_Hw0ZblQ-52" vertex="1">
                    <mxGeometry width="60" height="29" as="geometry">
                        <mxRectangle width="60" height="29" as="alternateBounds"/>
                    </mxGeometry>
                </mxCell>
                <mxCell id="hs2vC7QU2Vt1_Hw0ZblQ-53" value="x1&lt;sub&gt;o&lt;/sub&gt;" style="shape=partialRectangle;html=1;whiteSpace=wrap;connectable=0;strokeColor=inherit;overflow=hidden;fillColor=none;top=0;left=0;bottom=0;right=0;pointerEvents=1;fontSize=16;fontStyle=1" parent="hs2vC7QU2Vt1_Hw0ZblQ-52" vertex="1">
                    <mxGeometry x="60" width="60" height="29" as="geometry">
                        <mxRectangle width="60" height="29" as="alternateBounds"/>
                    </mxGeometry>
                </mxCell>
                <mxCell id="hs2vC7QU2Vt1_Hw0ZblQ-54" value="&lt;b&gt;x1v&lt;/b&gt;" style="shape=partialRectangle;html=1;whiteSpace=wrap;connectable=0;strokeColor=inherit;overflow=hidden;fillColor=none;top=0;left=0;bottom=0;right=0;pointerEvents=1;fontSize=16;" parent="hs2vC7QU2Vt1_Hw0ZblQ-52" vertex="1">
                    <mxGeometry x="120" width="60" height="29" as="geometry">
                        <mxRectangle width="60" height="29" as="alternateBounds"/>
                    </mxGeometry>
                </mxCell>
                <mxCell id="hs2vC7QU2Vt1_Hw0ZblQ-55" value="&lt;b&gt;x2&lt;sub&gt;o&lt;/sub&gt;&lt;/b&gt;" style="shape=partialRectangle;html=1;whiteSpace=wrap;connectable=0;strokeColor=inherit;overflow=hidden;fillColor=none;top=0;left=0;bottom=0;right=0;pointerEvents=1;fontSize=16;" parent="hs2vC7QU2Vt1_Hw0ZblQ-52" vertex="1">
                    <mxGeometry x="180" width="60" height="29" as="geometry">
                        <mxRectangle width="60" height="29" as="alternateBounds"/>
                    </mxGeometry>
                </mxCell>
                <mxCell id="hs2vC7QU2Vt1_Hw0ZblQ-56" value="&lt;b&gt;x2v&lt;/b&gt;" style="shape=partialRectangle;html=1;whiteSpace=wrap;connectable=0;strokeColor=inherit;overflow=hidden;fillColor=none;top=0;left=0;bottom=0;right=0;pointerEvents=1;fontSize=16;" parent="hs2vC7QU2Vt1_Hw0ZblQ-52" vertex="1">
                    <mxGeometry x="240" width="60" height="29" as="geometry">
                        <mxRectangle width="60" height="29" as="alternateBounds"/>
                    </mxGeometry>
                </mxCell>
                <mxCell id="hs2vC7QU2Vt1_Hw0ZblQ-57" value="&lt;b&gt;x3&lt;sub&gt;o&lt;/sub&gt;&lt;/b&gt;" style="shape=partialRectangle;html=1;whiteSpace=wrap;connectable=0;strokeColor=inherit;overflow=hidden;fillColor=none;top=0;left=0;bottom=0;right=0;pointerEvents=1;fontSize=16;" parent="hs2vC7QU2Vt1_Hw0ZblQ-52" vertex="1">
                    <mxGeometry x="300" width="60" height="29" as="geometry">
                        <mxRectangle width="60" height="29" as="alternateBounds"/>
                    </mxGeometry>
                </mxCell>
                <mxCell id="hs2vC7QU2Vt1_Hw0ZblQ-58" value="&lt;b&gt;x3v&lt;/b&gt;" style="shape=partialRectangle;html=1;whiteSpace=wrap;connectable=0;strokeColor=inherit;overflow=hidden;fillColor=none;top=0;left=0;bottom=0;right=0;pointerEvents=1;fontSize=16;" parent="hs2vC7QU2Vt1_Hw0ZblQ-52" vertex="1">
                    <mxGeometry x="360" width="60" height="29" as="geometry">
                        <mxRectangle width="60" height="29" as="alternateBounds"/>
                    </mxGeometry>
                </mxCell>
                <mxCell id="hs2vC7QU2Vt1_Hw0ZblQ-59" value="" style="shape=tableRow;horizontal=0;startSize=0;swimlaneHead=0;swimlaneBody=0;strokeColor=inherit;top=0;left=0;bottom=0;right=0;collapsible=0;dropTarget=0;fillColor=none;points=[[0,0.5],[1,0.5]];portConstraint=eastwest;fontSize=16;" parent="hs2vC7QU2Vt1_Hw0ZblQ-51" vertex="1">
                    <mxGeometry y="59" width="420" height="28" as="geometry"/>
                </mxCell>
                <mxCell id="hs2vC7QU2Vt1_Hw0ZblQ-222" value="a" style="shape=partialRectangle;html=1;whiteSpace=wrap;connectable=0;strokeColor=inherit;overflow=hidden;fillColor=none;top=0;left=0;bottom=0;right=0;pointerEvents=1;fontSize=16;" parent="hs2vC7QU2Vt1_Hw0ZblQ-59" vertex="1">
                    <mxGeometry width="60" height="28" as="geometry">
                        <mxRectangle width="60" height="28" as="alternateBounds"/>
                    </mxGeometry>
                </mxCell>
                <mxCell id="hs2vC7QU2Vt1_Hw0ZblQ-60" value="0" style="shape=partialRectangle;html=1;whiteSpace=wrap;connectable=0;strokeColor=inherit;overflow=hidden;fillColor=none;top=0;left=0;bottom=0;right=0;pointerEvents=1;fontSize=16;" parent="hs2vC7QU2Vt1_Hw0ZblQ-59" vertex="1">
                    <mxGeometry x="60" width="60" height="28" as="geometry">
                        <mxRectangle width="60" height="28" as="alternateBounds"/>
                    </mxGeometry>
                </mxCell>
                <mxCell id="hs2vC7QU2Vt1_Hw0ZblQ-61" value="-" style="shape=partialRectangle;html=1;whiteSpace=wrap;connectable=0;strokeColor=inherit;overflow=hidden;fillColor=none;top=0;left=0;bottom=0;right=0;pointerEvents=1;fontSize=16;" parent="hs2vC7QU2Vt1_Hw0ZblQ-59" vertex="1">
                    <mxGeometry x="120" width="60" height="28" as="geometry">
                        <mxRectangle width="60" height="28" as="alternateBounds"/>
                    </mxGeometry>
                </mxCell>
                <mxCell id="hs2vC7QU2Vt1_Hw0ZblQ-62" value="0" style="shape=partialRectangle;html=1;whiteSpace=wrap;connectable=0;strokeColor=inherit;overflow=hidden;fillColor=none;top=0;left=0;bottom=0;right=0;pointerEvents=1;fontSize=16;" parent="hs2vC7QU2Vt1_Hw0ZblQ-59" vertex="1">
                    <mxGeometry x="180" width="60" height="28" as="geometry">
                        <mxRectangle width="60" height="28" as="alternateBounds"/>
                    </mxGeometry>
                </mxCell>
                <mxCell id="hs2vC7QU2Vt1_Hw0ZblQ-63" value="-" style="shape=partialRectangle;html=1;whiteSpace=wrap;connectable=0;strokeColor=inherit;overflow=hidden;fillColor=none;top=0;left=0;bottom=0;right=0;pointerEvents=1;fontSize=16;" parent="hs2vC7QU2Vt1_Hw0ZblQ-59" vertex="1">
                    <mxGeometry x="240" width="60" height="28" as="geometry">
                        <mxRectangle width="60" height="28" as="alternateBounds"/>
                    </mxGeometry>
                </mxCell>
                <mxCell id="hs2vC7QU2Vt1_Hw0ZblQ-64" value="0" style="shape=partialRectangle;html=1;whiteSpace=wrap;connectable=0;strokeColor=inherit;overflow=hidden;fillColor=none;top=0;left=0;bottom=0;right=0;pointerEvents=1;fontSize=16;" parent="hs2vC7QU2Vt1_Hw0ZblQ-59" vertex="1">
                    <mxGeometry x="300" width="60" height="28" as="geometry">
                        <mxRectangle width="60" height="28" as="alternateBounds"/>
                    </mxGeometry>
                </mxCell>
                <mxCell id="hs2vC7QU2Vt1_Hw0ZblQ-65" value="-" style="shape=partialRectangle;html=1;whiteSpace=wrap;connectable=0;strokeColor=inherit;overflow=hidden;fillColor=none;top=0;left=0;bottom=0;right=0;pointerEvents=1;fontSize=16;" parent="hs2vC7QU2Vt1_Hw0ZblQ-59" vertex="1">
                    <mxGeometry x="360" width="60" height="28" as="geometry">
                        <mxRectangle width="60" height="28" as="alternateBounds"/>
                    </mxGeometry>
                </mxCell>
                <mxCell id="hs2vC7QU2Vt1_Hw0ZblQ-66" value="" style="shape=tableRow;horizontal=0;startSize=0;swimlaneHead=0;swimlaneBody=0;strokeColor=inherit;top=0;left=0;bottom=0;right=0;collapsible=0;dropTarget=0;fillColor=none;points=[[0,0.5],[1,0.5]];portConstraint=eastwest;fontSize=16;" parent="hs2vC7QU2Vt1_Hw0ZblQ-51" vertex="1">
                    <mxGeometry y="87" width="420" height="29" as="geometry"/>
                </mxCell>
                <mxCell id="hs2vC7QU2Vt1_Hw0ZblQ-223" value="b" style="shape=partialRectangle;html=1;whiteSpace=wrap;connectable=0;strokeColor=inherit;overflow=hidden;fillColor=none;top=0;left=0;bottom=0;right=0;pointerEvents=1;fontSize=16;" parent="hs2vC7QU2Vt1_Hw0ZblQ-66" vertex="1">
                    <mxGeometry width="60" height="29" as="geometry">
                        <mxRectangle width="60" height="29" as="alternateBounds"/>
                    </mxGeometry>
                </mxCell>
                <mxCell id="hs2vC7QU2Vt1_Hw0ZblQ-67" value="1" style="shape=partialRectangle;html=1;whiteSpace=wrap;connectable=0;strokeColor=inherit;overflow=hidden;fillColor=none;top=0;left=0;bottom=0;right=0;pointerEvents=1;fontSize=16;" parent="hs2vC7QU2Vt1_Hw0ZblQ-66" vertex="1">
                    <mxGeometry x="60" width="60" height="29" as="geometry">
                        <mxRectangle width="60" height="29" as="alternateBounds"/>
                    </mxGeometry>
                </mxCell>
                <mxCell id="hs2vC7QU2Vt1_Hw0ZblQ-68" value=".16" style="shape=partialRectangle;html=1;whiteSpace=wrap;connectable=0;strokeColor=inherit;overflow=hidden;fillColor=none;top=0;left=0;bottom=0;right=0;pointerEvents=1;fontSize=16;" parent="hs2vC7QU2Vt1_Hw0ZblQ-66" vertex="1">
                    <mxGeometry x="120" width="60" height="29" as="geometry">
                        <mxRectangle width="60" height="29" as="alternateBounds"/>
                    </mxGeometry>
                </mxCell>
                <mxCell id="hs2vC7QU2Vt1_Hw0ZblQ-69" value="0" style="shape=partialRectangle;html=1;whiteSpace=wrap;connectable=0;strokeColor=inherit;overflow=hidden;fillColor=none;top=0;left=0;bottom=0;right=0;pointerEvents=1;fontSize=16;" parent="hs2vC7QU2Vt1_Hw0ZblQ-66" vertex="1">
                    <mxGeometry x="180" width="60" height="29" as="geometry">
                        <mxRectangle width="60" height="29" as="alternateBounds"/>
                    </mxGeometry>
                </mxCell>
                <mxCell id="hs2vC7QU2Vt1_Hw0ZblQ-70" value="-" style="shape=partialRectangle;html=1;whiteSpace=wrap;connectable=0;strokeColor=inherit;overflow=hidden;fillColor=none;top=0;left=0;bottom=0;right=0;pointerEvents=1;fontSize=16;" parent="hs2vC7QU2Vt1_Hw0ZblQ-66" vertex="1">
                    <mxGeometry x="240" width="60" height="29" as="geometry">
                        <mxRectangle width="60" height="29" as="alternateBounds"/>
                    </mxGeometry>
                </mxCell>
                <mxCell id="hs2vC7QU2Vt1_Hw0ZblQ-71" value="0" style="shape=partialRectangle;html=1;whiteSpace=wrap;connectable=0;strokeColor=inherit;overflow=hidden;fillColor=none;top=0;left=0;bottom=0;right=0;pointerEvents=1;fontSize=16;" parent="hs2vC7QU2Vt1_Hw0ZblQ-66" vertex="1">
                    <mxGeometry x="300" width="60" height="29" as="geometry">
                        <mxRectangle width="60" height="29" as="alternateBounds"/>
                    </mxGeometry>
                </mxCell>
                <mxCell id="hs2vC7QU2Vt1_Hw0ZblQ-72" value="-" style="shape=partialRectangle;html=1;whiteSpace=wrap;connectable=0;strokeColor=inherit;overflow=hidden;fillColor=none;top=0;left=0;bottom=0;right=0;pointerEvents=1;fontSize=16;" parent="hs2vC7QU2Vt1_Hw0ZblQ-66" vertex="1">
                    <mxGeometry x="360" width="60" height="29" as="geometry">
                        <mxRectangle width="60" height="29" as="alternateBounds"/>
                    </mxGeometry>
                </mxCell>
                <mxCell id="hs2vC7QU2Vt1_Hw0ZblQ-73" style="shape=tableRow;horizontal=0;startSize=0;swimlaneHead=0;swimlaneBody=0;strokeColor=inherit;top=0;left=0;bottom=0;right=0;collapsible=0;dropTarget=0;fillColor=none;points=[[0,0.5],[1,0.5]];portConstraint=eastwest;fontSize=16;" parent="hs2vC7QU2Vt1_Hw0ZblQ-51" vertex="1">
                    <mxGeometry y="116" width="420" height="28" as="geometry"/>
                </mxCell>
                <mxCell id="hs2vC7QU2Vt1_Hw0ZblQ-224" value="c" style="shape=partialRectangle;html=1;whiteSpace=wrap;connectable=0;strokeColor=inherit;overflow=hidden;fillColor=none;top=0;left=0;bottom=0;right=0;pointerEvents=1;fontSize=16;" parent="hs2vC7QU2Vt1_Hw0ZblQ-73" vertex="1">
                    <mxGeometry width="60" height="28" as="geometry">
                        <mxRectangle width="60" height="28" as="alternateBounds"/>
                    </mxGeometry>
                </mxCell>
                <mxCell id="hs2vC7QU2Vt1_Hw0ZblQ-74" value="0" style="shape=partialRectangle;html=1;whiteSpace=wrap;connectable=0;strokeColor=inherit;overflow=hidden;fillColor=none;top=0;left=0;bottom=0;right=0;pointerEvents=1;fontSize=16;" parent="hs2vC7QU2Vt1_Hw0ZblQ-73" vertex="1">
                    <mxGeometry x="60" width="60" height="28" as="geometry">
                        <mxRectangle width="60" height="28" as="alternateBounds"/>
                    </mxGeometry>
                </mxCell>
                <mxCell id="hs2vC7QU2Vt1_Hw0ZblQ-75" value="-" style="shape=partialRectangle;html=1;whiteSpace=wrap;connectable=0;strokeColor=inherit;overflow=hidden;fillColor=none;top=0;left=0;bottom=0;right=0;pointerEvents=1;fontSize=16;" parent="hs2vC7QU2Vt1_Hw0ZblQ-73" vertex="1">
                    <mxGeometry x="120" width="60" height="28" as="geometry">
                        <mxRectangle width="60" height="28" as="alternateBounds"/>
                    </mxGeometry>
                </mxCell>
                <mxCell id="hs2vC7QU2Vt1_Hw0ZblQ-76" value="0" style="shape=partialRectangle;html=1;whiteSpace=wrap;connectable=0;strokeColor=inherit;overflow=hidden;fillColor=none;top=0;left=0;bottom=0;right=0;pointerEvents=1;fontSize=16;" parent="hs2vC7QU2Vt1_Hw0ZblQ-73" vertex="1">
                    <mxGeometry x="180" width="60" height="28" as="geometry">
                        <mxRectangle width="60" height="28" as="alternateBounds"/>
                    </mxGeometry>
                </mxCell>
                <mxCell id="hs2vC7QU2Vt1_Hw0ZblQ-77" value="-" style="shape=partialRectangle;html=1;whiteSpace=wrap;connectable=0;strokeColor=inherit;overflow=hidden;fillColor=none;top=0;left=0;bottom=0;right=0;pointerEvents=1;fontSize=16;" parent="hs2vC7QU2Vt1_Hw0ZblQ-73" vertex="1">
                    <mxGeometry x="240" width="60" height="28" as="geometry">
                        <mxRectangle width="60" height="28" as="alternateBounds"/>
                    </mxGeometry>
                </mxCell>
                <mxCell id="hs2vC7QU2Vt1_Hw0ZblQ-78" value="1" style="shape=partialRectangle;html=1;whiteSpace=wrap;connectable=0;strokeColor=inherit;overflow=hidden;fillColor=none;top=0;left=0;bottom=0;right=0;pointerEvents=1;fontSize=16;" parent="hs2vC7QU2Vt1_Hw0ZblQ-73" vertex="1">
                    <mxGeometry x="300" width="60" height="28" as="geometry">
                        <mxRectangle width="60" height="28" as="alternateBounds"/>
                    </mxGeometry>
                </mxCell>
                <mxCell id="hs2vC7QU2Vt1_Hw0ZblQ-79" value=".50" style="shape=partialRectangle;html=1;whiteSpace=wrap;connectable=0;strokeColor=inherit;overflow=hidden;fillColor=none;top=0;left=0;bottom=0;right=0;pointerEvents=1;fontSize=16;" parent="hs2vC7QU2Vt1_Hw0ZblQ-73" vertex="1">
                    <mxGeometry x="360" width="60" height="28" as="geometry">
                        <mxRectangle width="60" height="28" as="alternateBounds"/>
                    </mxGeometry>
                </mxCell>
                <mxCell id="hs2vC7QU2Vt1_Hw0ZblQ-80" style="shape=tableRow;horizontal=0;startSize=0;swimlaneHead=0;swimlaneBody=0;strokeColor=inherit;top=0;left=0;bottom=0;right=0;collapsible=0;dropTarget=0;fillColor=none;points=[[0,0.5],[1,0.5]];portConstraint=eastwest;fontSize=16;" parent="hs2vC7QU2Vt1_Hw0ZblQ-51" vertex="1">
                    <mxGeometry y="144" width="420" height="29" as="geometry"/>
                </mxCell>
                <mxCell id="hs2vC7QU2Vt1_Hw0ZblQ-225" value="d" style="shape=partialRectangle;html=1;whiteSpace=wrap;connectable=0;strokeColor=inherit;overflow=hidden;fillColor=none;top=0;left=0;bottom=0;right=0;pointerEvents=1;fontSize=16;" parent="hs2vC7QU2Vt1_Hw0ZblQ-80" vertex="1">
                    <mxGeometry width="60" height="29" as="geometry">
                        <mxRectangle width="60" height="29" as="alternateBounds"/>
                    </mxGeometry>
                </mxCell>
                <mxCell id="hs2vC7QU2Vt1_Hw0ZblQ-81" value="1" style="shape=partialRectangle;html=1;whiteSpace=wrap;connectable=0;strokeColor=inherit;overflow=hidden;fillColor=none;top=0;left=0;bottom=0;right=0;pointerEvents=1;fontSize=16;" parent="hs2vC7QU2Vt1_Hw0ZblQ-80" vertex="1">
                    <mxGeometry x="60" width="60" height="29" as="geometry">
                        <mxRectangle width="60" height="29" as="alternateBounds"/>
                    </mxGeometry>
                </mxCell>
                <mxCell id="hs2vC7QU2Vt1_Hw0ZblQ-82" value=".50" style="shape=partialRectangle;html=1;whiteSpace=wrap;connectable=0;strokeColor=inherit;overflow=hidden;fillColor=none;top=0;left=0;bottom=0;right=0;pointerEvents=1;fontSize=16;" parent="hs2vC7QU2Vt1_Hw0ZblQ-80" vertex="1">
                    <mxGeometry x="120" width="60" height="29" as="geometry">
                        <mxRectangle width="60" height="29" as="alternateBounds"/>
                    </mxGeometry>
                </mxCell>
                <mxCell id="hs2vC7QU2Vt1_Hw0ZblQ-83" value="1" style="shape=partialRectangle;html=1;whiteSpace=wrap;connectable=0;strokeColor=inherit;overflow=hidden;fillColor=none;top=0;left=0;bottom=0;right=0;pointerEvents=1;fontSize=16;" parent="hs2vC7QU2Vt1_Hw0ZblQ-80" vertex="1">
                    <mxGeometry x="180" width="60" height="29" as="geometry">
                        <mxRectangle width="60" height="29" as="alternateBounds"/>
                    </mxGeometry>
                </mxCell>
                <mxCell id="hs2vC7QU2Vt1_Hw0ZblQ-84" value=".16" style="shape=partialRectangle;html=1;whiteSpace=wrap;connectable=0;strokeColor=inherit;overflow=hidden;fillColor=none;top=0;left=0;bottom=0;right=0;pointerEvents=1;fontSize=16;" parent="hs2vC7QU2Vt1_Hw0ZblQ-80" vertex="1">
                    <mxGeometry x="240" width="60" height="29" as="geometry">
                        <mxRectangle width="60" height="29" as="alternateBounds"/>
                    </mxGeometry>
                </mxCell>
                <mxCell id="hs2vC7QU2Vt1_Hw0ZblQ-85" value="0" style="shape=partialRectangle;html=1;whiteSpace=wrap;connectable=0;strokeColor=inherit;overflow=hidden;fillColor=none;top=0;left=0;bottom=0;right=0;pointerEvents=1;fontSize=16;" parent="hs2vC7QU2Vt1_Hw0ZblQ-80" vertex="1">
                    <mxGeometry x="300" width="60" height="29" as="geometry">
                        <mxRectangle width="60" height="29" as="alternateBounds"/>
                    </mxGeometry>
                </mxCell>
                <mxCell id="hs2vC7QU2Vt1_Hw0ZblQ-86" value="-" style="shape=partialRectangle;html=1;whiteSpace=wrap;connectable=0;strokeColor=inherit;overflow=hidden;fillColor=none;top=0;left=0;bottom=0;right=0;pointerEvents=1;fontSize=16;" parent="hs2vC7QU2Vt1_Hw0ZblQ-80" vertex="1">
                    <mxGeometry x="360" width="60" height="29" as="geometry">
                        <mxRectangle width="60" height="29" as="alternateBounds"/>
                    </mxGeometry>
                </mxCell>
                <mxCell id="hs2vC7QU2Vt1_Hw0ZblQ-87" style="shape=tableRow;horizontal=0;startSize=0;swimlaneHead=0;swimlaneBody=0;strokeColor=inherit;top=0;left=0;bottom=0;right=0;collapsible=0;dropTarget=0;fillColor=none;points=[[0,0.5],[1,0.5]];portConstraint=eastwest;fontSize=16;" parent="hs2vC7QU2Vt1_Hw0ZblQ-51" vertex="1">
                    <mxGeometry y="173" width="420" height="28" as="geometry"/>
                </mxCell>
                <mxCell id="hs2vC7QU2Vt1_Hw0ZblQ-226" value="e" style="shape=partialRectangle;html=1;whiteSpace=wrap;connectable=0;strokeColor=inherit;overflow=hidden;fillColor=none;top=0;left=0;bottom=0;right=0;pointerEvents=1;fontSize=16;" parent="hs2vC7QU2Vt1_Hw0ZblQ-87" vertex="1">
                    <mxGeometry width="60" height="28" as="geometry">
                        <mxRectangle width="60" height="28" as="alternateBounds"/>
                    </mxGeometry>
                </mxCell>
                <mxCell id="hs2vC7QU2Vt1_Hw0ZblQ-88" value="0" style="shape=partialRectangle;html=1;whiteSpace=wrap;connectable=0;strokeColor=inherit;overflow=hidden;fillColor=none;top=0;left=0;bottom=0;right=0;pointerEvents=1;fontSize=16;" parent="hs2vC7QU2Vt1_Hw0ZblQ-87" vertex="1">
                    <mxGeometry x="60" width="60" height="28" as="geometry">
                        <mxRectangle width="60" height="28" as="alternateBounds"/>
                    </mxGeometry>
                </mxCell>
                <mxCell id="hs2vC7QU2Vt1_Hw0ZblQ-89" value="-" style="shape=partialRectangle;html=1;whiteSpace=wrap;connectable=0;strokeColor=inherit;overflow=hidden;fillColor=none;top=0;left=0;bottom=0;right=0;pointerEvents=1;fontSize=16;" parent="hs2vC7QU2Vt1_Hw0ZblQ-87" vertex="1">
                    <mxGeometry x="120" width="60" height="28" as="geometry">
                        <mxRectangle width="60" height="28" as="alternateBounds"/>
                    </mxGeometry>
                </mxCell>
                <mxCell id="hs2vC7QU2Vt1_Hw0ZblQ-90" value="1" style="shape=partialRectangle;html=1;whiteSpace=wrap;connectable=0;strokeColor=inherit;overflow=hidden;fillColor=none;top=0;left=0;bottom=0;right=0;pointerEvents=1;fontSize=16;" parent="hs2vC7QU2Vt1_Hw0ZblQ-87" vertex="1">
                    <mxGeometry x="180" width="60" height="28" as="geometry">
                        <mxRectangle width="60" height="28" as="alternateBounds"/>
                    </mxGeometry>
                </mxCell>
                <mxCell id="hs2vC7QU2Vt1_Hw0ZblQ-91" value=".85" style="shape=partialRectangle;html=1;whiteSpace=wrap;connectable=0;strokeColor=inherit;overflow=hidden;fillColor=none;top=0;left=0;bottom=0;right=0;pointerEvents=1;fontSize=16;" parent="hs2vC7QU2Vt1_Hw0ZblQ-87" vertex="1">
                    <mxGeometry x="240" width="60" height="28" as="geometry">
                        <mxRectangle width="60" height="28" as="alternateBounds"/>
                    </mxGeometry>
                </mxCell>
                <mxCell id="hs2vC7QU2Vt1_Hw0ZblQ-92" value="1" style="shape=partialRectangle;html=1;whiteSpace=wrap;connectable=0;strokeColor=inherit;overflow=hidden;fillColor=none;top=0;left=0;bottom=0;right=0;pointerEvents=1;fontSize=16;" parent="hs2vC7QU2Vt1_Hw0ZblQ-87" vertex="1">
                    <mxGeometry x="300" width="60" height="28" as="geometry">
                        <mxRectangle width="60" height="28" as="alternateBounds"/>
                    </mxGeometry>
                </mxCell>
                <mxCell id="hs2vC7QU2Vt1_Hw0ZblQ-93" value=".16" style="shape=partialRectangle;html=1;whiteSpace=wrap;connectable=0;strokeColor=inherit;overflow=hidden;fillColor=none;top=0;left=0;bottom=0;right=0;pointerEvents=1;fontSize=16;" parent="hs2vC7QU2Vt1_Hw0ZblQ-87" vertex="1">
                    <mxGeometry x="360" width="60" height="28" as="geometry">
                        <mxRectangle width="60" height="28" as="alternateBounds"/>
                    </mxGeometry>
                </mxCell>
                <mxCell id="hs2vC7QU2Vt1_Hw0ZblQ-94" style="shape=tableRow;horizontal=0;startSize=0;swimlaneHead=0;swimlaneBody=0;strokeColor=inherit;top=0;left=0;bottom=0;right=0;collapsible=0;dropTarget=0;fillColor=none;points=[[0,0.5],[1,0.5]];portConstraint=eastwest;fontSize=16;" parent="hs2vC7QU2Vt1_Hw0ZblQ-51" vertex="1">
                    <mxGeometry y="201" width="420" height="29" as="geometry"/>
                </mxCell>
                <mxCell id="hs2vC7QU2Vt1_Hw0ZblQ-227" value="f" style="shape=partialRectangle;html=1;whiteSpace=wrap;connectable=0;strokeColor=inherit;overflow=hidden;fillColor=none;top=0;left=0;bottom=0;right=0;pointerEvents=1;fontSize=16;" parent="hs2vC7QU2Vt1_Hw0ZblQ-94" vertex="1">
                    <mxGeometry width="60" height="29" as="geometry">
                        <mxRectangle width="60" height="29" as="alternateBounds"/>
                    </mxGeometry>
                </mxCell>
                <mxCell id="hs2vC7QU2Vt1_Hw0ZblQ-95" value="1" style="shape=partialRectangle;html=1;whiteSpace=wrap;connectable=0;strokeColor=inherit;overflow=hidden;fillColor=none;top=0;left=0;bottom=0;right=0;pointerEvents=1;fontSize=16;" parent="hs2vC7QU2Vt1_Hw0ZblQ-94" vertex="1">
                    <mxGeometry x="60" width="60" height="29" as="geometry">
                        <mxRectangle width="60" height="29" as="alternateBounds"/>
                    </mxGeometry>
                </mxCell>
                <mxCell id="hs2vC7QU2Vt1_Hw0ZblQ-96" value=".84" style="shape=partialRectangle;html=1;whiteSpace=wrap;connectable=0;strokeColor=inherit;overflow=hidden;fillColor=none;top=0;left=0;bottom=0;right=0;pointerEvents=1;fontSize=16;" parent="hs2vC7QU2Vt1_Hw0ZblQ-94" vertex="1">
                    <mxGeometry x="120" width="60" height="29" as="geometry">
                        <mxRectangle width="60" height="29" as="alternateBounds"/>
                    </mxGeometry>
                </mxCell>
                <mxCell id="hs2vC7QU2Vt1_Hw0ZblQ-97" value="1" style="shape=partialRectangle;html=1;whiteSpace=wrap;connectable=0;strokeColor=inherit;overflow=hidden;fillColor=none;top=0;left=0;bottom=0;right=0;pointerEvents=1;fontSize=16;" parent="hs2vC7QU2Vt1_Hw0ZblQ-94" vertex="1">
                    <mxGeometry x="180" width="60" height="29" as="geometry">
                        <mxRectangle width="60" height="29" as="alternateBounds"/>
                    </mxGeometry>
                </mxCell>
                <mxCell id="hs2vC7QU2Vt1_Hw0ZblQ-98" value=".50" style="shape=partialRectangle;html=1;whiteSpace=wrap;connectable=0;strokeColor=inherit;overflow=hidden;fillColor=none;top=0;left=0;bottom=0;right=0;pointerEvents=1;fontSize=16;" parent="hs2vC7QU2Vt1_Hw0ZblQ-94" vertex="1">
                    <mxGeometry x="240" width="60" height="29" as="geometry">
                        <mxRectangle width="60" height="29" as="alternateBounds"/>
                    </mxGeometry>
                </mxCell>
                <mxCell id="hs2vC7QU2Vt1_Hw0ZblQ-99" value="1" style="shape=partialRectangle;html=1;whiteSpace=wrap;connectable=0;strokeColor=inherit;overflow=hidden;fillColor=none;top=0;left=0;bottom=0;right=0;pointerEvents=1;fontSize=16;" parent="hs2vC7QU2Vt1_Hw0ZblQ-94" vertex="1">
                    <mxGeometry x="300" width="60" height="29" as="geometry">
                        <mxRectangle width="60" height="29" as="alternateBounds"/>
                    </mxGeometry>
                </mxCell>
                <mxCell id="hs2vC7QU2Vt1_Hw0ZblQ-100" value=".84" style="shape=partialRectangle;html=1;whiteSpace=wrap;connectable=0;strokeColor=inherit;overflow=hidden;fillColor=none;top=0;left=0;bottom=0;right=0;pointerEvents=1;fontSize=16;" parent="hs2vC7QU2Vt1_Hw0ZblQ-94" vertex="1">
                    <mxGeometry x="360" width="60" height="29" as="geometry">
                        <mxRectangle width="60" height="29" as="alternateBounds"/>
                    </mxGeometry>
                </mxCell>
                <mxCell id="hs2vC7QU2Vt1_Hw0ZblQ-107" value="" style="verticalLabelPosition=bottom;verticalAlign=top;html=1;shape=mxgraph.basic.rect;fillColor2=none;strokeWidth=2;size=20;indent=5;fillColor=none;dashed=1;dashPattern=8 8;strokeColor=#6c8ebf;" parent="1" vertex="1">
                    <mxGeometry x="198" y="285" width="229" height="160" as="geometry"/>
                </mxCell>
                <mxCell id="hs2vC7QU2Vt1_Hw0ZblQ-108" value="" style="verticalLabelPosition=bottom;verticalAlign=top;html=1;shape=mxgraph.basic.rect;fillColor2=none;strokeWidth=2;size=20;indent=5;fillColor=none;dashed=1;dashPattern=8 8;strokeColor=#6c8ebf;" parent="1" vertex="1">
                    <mxGeometry x="439" y="367" width="110" height="80" as="geometry"/>
                </mxCell>
                <mxCell id="hs2vC7QU2Vt1_Hw0ZblQ-231" value="&lt;font style=&quot;font-size: 14px;&quot;&gt;def f(x1 : float, x2: float | None, x3: Tuple[float,float] | None):&lt;/font&gt;" style="text;html=1;align=center;verticalAlign=middle;whiteSpace=wrap;rounded=0;" parent="1" vertex="1">
                    <mxGeometry x="143.5" y="470" width="401" height="30" as="geometry"/>
                </mxCell>
                <mxCell id="hs2vC7QU2Vt1_Hw0ZblQ-232" value="&lt;font style=&quot;font-size: 14px;&quot;&gt;def f(x1 : float | None, x2: float | None, x3: float | None):&lt;/font&gt;" style="text;html=1;align=center;verticalAlign=middle;whiteSpace=wrap;rounded=0;" parent="1" vertex="1">
                    <mxGeometry x="160" y="950" width="350" height="30" as="geometry"/>
                </mxCell>
                <mxCell id="2" value="X" style="shape=table;startSize=30;container=1;collapsible=0;childLayout=tableLayout;strokeColor=default;fontSize=16;fontStyle=3" vertex="1" parent="1">
                    <mxGeometry x="910" y="180" width="250" height="220" as="geometry"/>
                </mxCell>
                <mxCell id="3" value="" style="shape=tableRow;horizontal=0;startSize=0;swimlaneHead=0;swimlaneBody=0;strokeColor=inherit;top=0;left=0;bottom=0;right=0;collapsible=0;dropTarget=0;fillColor=none;points=[[0,0.5],[1,0.5]];portConstraint=eastwest;fontSize=16;" vertex="1" parent="2">
                    <mxGeometry y="30" width="250" height="26" as="geometry"/>
                </mxCell>
                <mxCell id="4" value="x1" style="shape=partialRectangle;html=1;whiteSpace=wrap;connectable=0;strokeColor=inherit;overflow=hidden;fillColor=none;top=0;left=0;bottom=0;right=0;pointerEvents=1;fontSize=16;fontStyle=1" vertex="1" parent="3">
                    <mxGeometry width="50" height="26" as="geometry">
                        <mxRectangle width="50" height="26" as="alternateBounds"/>
                    </mxGeometry>
                </mxCell>
                <mxCell id="5" value="x2" style="shape=partialRectangle;html=1;whiteSpace=wrap;connectable=0;strokeColor=inherit;overflow=hidden;fillColor=none;top=0;left=0;bottom=0;right=0;pointerEvents=1;fontSize=16;fontStyle=1" vertex="1" parent="3">
                    <mxGeometry x="50" width="50" height="26" as="geometry">
                        <mxRectangle width="50" height="26" as="alternateBounds"/>
                    </mxGeometry>
                </mxCell>
                <mxCell id="6" value="x3" style="shape=partialRectangle;html=1;whiteSpace=wrap;connectable=0;strokeColor=inherit;overflow=hidden;fillColor=none;top=0;left=0;bottom=0;right=0;pointerEvents=1;fontSize=16;fontStyle=1" vertex="1" parent="3">
                    <mxGeometry x="100" width="50" height="26" as="geometry">
                        <mxRectangle width="50" height="26" as="alternateBounds"/>
                    </mxGeometry>
                </mxCell>
                <mxCell id="7" value="x3_1" style="shape=partialRectangle;html=1;whiteSpace=wrap;connectable=0;strokeColor=inherit;overflow=hidden;fillColor=none;top=0;left=0;bottom=0;right=0;pointerEvents=1;fontSize=16;fontStyle=1" vertex="1" parent="3">
                    <mxGeometry x="150" width="50" height="26" as="geometry">
                        <mxRectangle width="50" height="26" as="alternateBounds"/>
                    </mxGeometry>
                </mxCell>
                <mxCell id="8" value="x3_2" style="shape=partialRectangle;html=1;whiteSpace=wrap;connectable=0;strokeColor=inherit;overflow=hidden;fillColor=none;top=0;left=0;bottom=0;right=0;pointerEvents=1;fontSize=16;fontStyle=1" vertex="1" parent="3">
                    <mxGeometry x="200" width="50" height="26" as="geometry">
                        <mxRectangle width="50" height="26" as="alternateBounds"/>
                    </mxGeometry>
                </mxCell>
                <mxCell id="9" value="" style="shape=tableRow;horizontal=0;startSize=0;swimlaneHead=0;swimlaneBody=0;strokeColor=inherit;top=0;left=0;bottom=0;right=0;collapsible=0;dropTarget=0;fillColor=none;points=[[0,0.5],[1,0.5]];portConstraint=eastwest;fontSize=16;" vertex="1" parent="2">
                    <mxGeometry y="56" width="250" height="29" as="geometry"/>
                </mxCell>
                <mxCell id="10" value="#" style="shape=partialRectangle;html=1;whiteSpace=wrap;connectable=0;strokeColor=inherit;overflow=hidden;fillColor=none;top=0;left=0;bottom=0;right=0;pointerEvents=1;fontSize=16;" vertex="1" parent="9">
                    <mxGeometry width="50" height="29" as="geometry">
                        <mxRectangle width="50" height="29" as="alternateBounds"/>
                    </mxGeometry>
                </mxCell>
                <mxCell id="11" value="-" style="shape=partialRectangle;html=1;whiteSpace=wrap;connectable=0;strokeColor=inherit;overflow=hidden;fillColor=none;top=0;left=0;bottom=0;right=0;pointerEvents=1;fontSize=16;" vertex="1" parent="9">
                    <mxGeometry x="50" width="50" height="29" as="geometry">
                        <mxRectangle width="50" height="29" as="alternateBounds"/>
                    </mxGeometry>
                </mxCell>
                <mxCell id="12" value="-" style="shape=partialRectangle;html=1;whiteSpace=wrap;connectable=0;strokeColor=inherit;overflow=hidden;fillColor=none;top=0;left=0;bottom=0;right=0;pointerEvents=1;fontSize=16;" vertex="1" parent="9">
                    <mxGeometry x="100" width="50" height="29" as="geometry">
                        <mxRectangle width="50" height="29" as="alternateBounds"/>
                    </mxGeometry>
                </mxCell>
                <mxCell id="13" value="-" style="shape=partialRectangle;html=1;whiteSpace=wrap;connectable=0;strokeColor=inherit;overflow=hidden;fillColor=none;top=0;left=0;bottom=0;right=0;pointerEvents=1;fontSize=16;" vertex="1" parent="9">
                    <mxGeometry x="150" width="50" height="29" as="geometry">
                        <mxRectangle width="50" height="29" as="alternateBounds"/>
                    </mxGeometry>
                </mxCell>
                <mxCell id="14" value="-" style="shape=partialRectangle;html=1;whiteSpace=wrap;connectable=0;strokeColor=inherit;overflow=hidden;fillColor=none;top=0;left=0;bottom=0;right=0;pointerEvents=1;fontSize=16;" vertex="1" parent="9">
                    <mxGeometry x="200" width="50" height="29" as="geometry">
                        <mxRectangle width="50" height="29" as="alternateBounds"/>
                    </mxGeometry>
                </mxCell>
                <mxCell id="15" value="" style="shape=tableRow;horizontal=0;startSize=0;swimlaneHead=0;swimlaneBody=0;strokeColor=inherit;top=0;left=0;bottom=0;right=0;collapsible=0;dropTarget=0;fillColor=none;points=[[0,0.5],[1,0.5]];portConstraint=eastwest;fontSize=16;" vertex="1" parent="2">
                    <mxGeometry y="85" width="250" height="27" as="geometry"/>
                </mxCell>
                <mxCell id="16" value="#" style="shape=partialRectangle;html=1;whiteSpace=wrap;connectable=0;strokeColor=inherit;overflow=hidden;fillColor=none;top=0;left=0;bottom=0;right=0;pointerEvents=1;fontSize=16;" vertex="1" parent="15">
                    <mxGeometry width="50" height="27" as="geometry">
                        <mxRectangle width="50" height="27" as="alternateBounds"/>
                    </mxGeometry>
                </mxCell>
                <mxCell id="17" value="#" style="shape=partialRectangle;html=1;whiteSpace=wrap;connectable=0;strokeColor=inherit;overflow=hidden;fillColor=none;top=0;left=0;bottom=0;right=0;pointerEvents=1;fontSize=16;" vertex="1" parent="15">
                    <mxGeometry x="50" width="50" height="27" as="geometry">
                        <mxRectangle width="50" height="27" as="alternateBounds"/>
                    </mxGeometry>
                </mxCell>
                <mxCell id="18" value="-" style="shape=partialRectangle;html=1;whiteSpace=wrap;connectable=0;strokeColor=inherit;overflow=hidden;fillColor=none;top=0;left=0;bottom=0;right=0;pointerEvents=1;fontSize=16;" vertex="1" parent="15">
                    <mxGeometry x="100" width="50" height="27" as="geometry">
                        <mxRectangle width="50" height="27" as="alternateBounds"/>
                    </mxGeometry>
                </mxCell>
                <mxCell id="19" value="-" style="shape=partialRectangle;html=1;whiteSpace=wrap;connectable=0;strokeColor=inherit;overflow=hidden;fillColor=none;top=0;left=0;bottom=0;right=0;pointerEvents=1;fontSize=16;" vertex="1" parent="15">
                    <mxGeometry x="150" width="50" height="27" as="geometry">
                        <mxRectangle width="50" height="27" as="alternateBounds"/>
                    </mxGeometry>
                </mxCell>
                <mxCell id="20" value="-" style="shape=partialRectangle;html=1;whiteSpace=wrap;connectable=0;strokeColor=inherit;overflow=hidden;fillColor=none;top=0;left=0;bottom=0;right=0;pointerEvents=1;fontSize=16;" vertex="1" parent="15">
                    <mxGeometry x="200" width="50" height="27" as="geometry">
                        <mxRectangle width="50" height="27" as="alternateBounds"/>
                    </mxGeometry>
                </mxCell>
                <mxCell id="21" style="shape=tableRow;horizontal=0;startSize=0;swimlaneHead=0;swimlaneBody=0;strokeColor=inherit;top=0;left=0;bottom=0;right=0;collapsible=0;dropTarget=0;fillColor=none;points=[[0,0.5],[1,0.5]];portConstraint=eastwest;fontSize=16;" vertex="1" parent="2">
                    <mxGeometry y="112" width="250" height="26" as="geometry"/>
                </mxCell>
                <mxCell id="22" value="#" style="shape=partialRectangle;html=1;whiteSpace=wrap;connectable=0;strokeColor=inherit;overflow=hidden;fillColor=none;top=0;left=0;bottom=0;right=0;pointerEvents=1;fontSize=16;" vertex="1" parent="21">
                    <mxGeometry width="50" height="26" as="geometry">
                        <mxRectangle width="50" height="26" as="alternateBounds"/>
                    </mxGeometry>
                </mxCell>
                <mxCell id="23" value="#" style="shape=partialRectangle;html=1;whiteSpace=wrap;connectable=0;strokeColor=inherit;overflow=hidden;fillColor=none;top=0;left=0;bottom=0;right=0;pointerEvents=1;fontSize=16;" vertex="1" parent="21">
                    <mxGeometry x="50" width="50" height="26" as="geometry">
                        <mxRectangle width="50" height="26" as="alternateBounds"/>
                    </mxGeometry>
                </mxCell>
                <mxCell id="24" value="-" style="shape=partialRectangle;html=1;whiteSpace=wrap;connectable=0;strokeColor=inherit;overflow=hidden;fillColor=none;top=0;left=0;bottom=0;right=0;pointerEvents=1;fontSize=16;" vertex="1" parent="21">
                    <mxGeometry x="100" width="50" height="26" as="geometry">
                        <mxRectangle width="50" height="26" as="alternateBounds"/>
                    </mxGeometry>
                </mxCell>
                <mxCell id="25" value="-" style="shape=partialRectangle;html=1;whiteSpace=wrap;connectable=0;strokeColor=inherit;overflow=hidden;fillColor=none;top=0;left=0;bottom=0;right=0;pointerEvents=1;fontSize=16;" vertex="1" parent="21">
                    <mxGeometry x="150" width="50" height="26" as="geometry">
                        <mxRectangle width="50" height="26" as="alternateBounds"/>
                    </mxGeometry>
                </mxCell>
                <mxCell id="26" value="&lt;div&gt;-&lt;/div&gt;" style="shape=partialRectangle;html=1;whiteSpace=wrap;connectable=0;strokeColor=inherit;overflow=hidden;fillColor=none;top=0;left=0;bottom=0;right=0;pointerEvents=1;fontSize=16;" vertex="1" parent="21">
                    <mxGeometry x="200" width="50" height="26" as="geometry">
                        <mxRectangle width="50" height="26" as="alternateBounds"/>
                    </mxGeometry>
                </mxCell>
                <mxCell id="27" style="shape=tableRow;horizontal=0;startSize=0;swimlaneHead=0;swimlaneBody=0;strokeColor=inherit;top=0;left=0;bottom=0;right=0;collapsible=0;dropTarget=0;fillColor=none;points=[[0,0.5],[1,0.5]];portConstraint=eastwest;fontSize=16;" vertex="1" parent="2">
                    <mxGeometry y="138" width="250" height="27" as="geometry"/>
                </mxCell>
                <mxCell id="28" value="#" style="shape=partialRectangle;html=1;whiteSpace=wrap;connectable=0;strokeColor=inherit;overflow=hidden;fillColor=none;top=0;left=0;bottom=0;right=0;pointerEvents=1;fontSize=16;" vertex="1" parent="27">
                    <mxGeometry width="50" height="27" as="geometry">
                        <mxRectangle width="50" height="27" as="alternateBounds"/>
                    </mxGeometry>
                </mxCell>
                <mxCell id="29" value="-" style="shape=partialRectangle;html=1;whiteSpace=wrap;connectable=0;strokeColor=inherit;overflow=hidden;fillColor=none;top=0;left=0;bottom=0;right=0;pointerEvents=1;fontSize=16;" vertex="1" parent="27">
                    <mxGeometry x="50" width="50" height="27" as="geometry">
                        <mxRectangle width="50" height="27" as="alternateBounds"/>
                    </mxGeometry>
                </mxCell>
                <mxCell id="30" value="1" style="shape=partialRectangle;html=1;whiteSpace=wrap;connectable=0;strokeColor=inherit;overflow=hidden;fillColor=none;top=0;left=0;bottom=0;right=0;pointerEvents=1;fontSize=16;" vertex="1" parent="27">
                    <mxGeometry x="100" width="50" height="27" as="geometry">
                        <mxRectangle width="50" height="27" as="alternateBounds"/>
                    </mxGeometry>
                </mxCell>
                <mxCell id="31" value="-" style="shape=partialRectangle;html=1;whiteSpace=wrap;connectable=0;strokeColor=inherit;overflow=hidden;fillColor=none;top=0;left=0;bottom=0;right=0;pointerEvents=1;fontSize=16;" vertex="1" parent="27">
                    <mxGeometry x="150" width="50" height="27" as="geometry">
                        <mxRectangle width="50" height="27" as="alternateBounds"/>
                    </mxGeometry>
                </mxCell>
                <mxCell id="32" value="#" style="shape=partialRectangle;html=1;whiteSpace=wrap;connectable=0;strokeColor=inherit;overflow=hidden;fillColor=none;top=0;left=0;bottom=0;right=0;pointerEvents=1;fontSize=16;" vertex="1" parent="27">
                    <mxGeometry x="200" width="50" height="27" as="geometry">
                        <mxRectangle width="50" height="27" as="alternateBounds"/>
                    </mxGeometry>
                </mxCell>
                <mxCell id="33" style="shape=tableRow;horizontal=0;startSize=0;swimlaneHead=0;swimlaneBody=0;strokeColor=inherit;top=0;left=0;bottom=0;right=0;collapsible=0;dropTarget=0;fillColor=none;points=[[0,0.5],[1,0.5]];portConstraint=eastwest;fontSize=16;" vertex="1" parent="2">
                    <mxGeometry y="165" width="250" height="29" as="geometry"/>
                </mxCell>
                <mxCell id="34" value="#" style="shape=partialRectangle;html=1;whiteSpace=wrap;connectable=0;strokeColor=inherit;overflow=hidden;fillColor=none;top=0;left=0;bottom=0;right=0;pointerEvents=1;fontSize=16;" vertex="1" parent="33">
                    <mxGeometry width="50" height="29" as="geometry">
                        <mxRectangle width="50" height="29" as="alternateBounds"/>
                    </mxGeometry>
                </mxCell>
                <mxCell id="35" value="#" style="shape=partialRectangle;html=1;whiteSpace=wrap;connectable=0;strokeColor=inherit;overflow=hidden;fillColor=none;top=0;left=0;bottom=0;right=0;pointerEvents=1;fontSize=16;" vertex="1" parent="33">
                    <mxGeometry x="50" width="50" height="29" as="geometry">
                        <mxRectangle width="50" height="29" as="alternateBounds"/>
                    </mxGeometry>
                </mxCell>
                <mxCell id="36" value="1" style="shape=partialRectangle;html=1;whiteSpace=wrap;connectable=0;strokeColor=inherit;overflow=hidden;fillColor=none;top=0;left=0;bottom=0;right=0;pointerEvents=1;fontSize=16;" vertex="1" parent="33">
                    <mxGeometry x="100" width="50" height="29" as="geometry">
                        <mxRectangle width="50" height="29" as="alternateBounds"/>
                    </mxGeometry>
                </mxCell>
                <mxCell id="37" value="#" style="shape=partialRectangle;html=1;whiteSpace=wrap;connectable=0;strokeColor=inherit;overflow=hidden;fillColor=none;top=0;left=0;bottom=0;right=0;pointerEvents=1;fontSize=16;" vertex="1" parent="33">
                    <mxGeometry x="150" width="50" height="29" as="geometry">
                        <mxRectangle width="50" height="29" as="alternateBounds"/>
                    </mxGeometry>
                </mxCell>
                <mxCell id="38" value="-" style="shape=partialRectangle;html=1;whiteSpace=wrap;connectable=0;strokeColor=inherit;overflow=hidden;fillColor=none;top=0;left=0;bottom=0;right=0;pointerEvents=1;fontSize=16;" vertex="1" parent="33">
                    <mxGeometry x="200" width="50" height="29" as="geometry">
                        <mxRectangle width="50" height="29" as="alternateBounds"/>
                    </mxGeometry>
                </mxCell>
                <mxCell id="39" style="shape=tableRow;horizontal=0;startSize=0;swimlaneHead=0;swimlaneBody=0;strokeColor=inherit;top=0;left=0;bottom=0;right=0;collapsible=0;dropTarget=0;fillColor=none;points=[[0,0.5],[1,0.5]];portConstraint=eastwest;fontSize=16;" vertex="1" parent="2">
                    <mxGeometry y="194" width="250" height="26" as="geometry"/>
                </mxCell>
                <mxCell id="40" value="#" style="shape=partialRectangle;html=1;whiteSpace=wrap;connectable=0;strokeColor=inherit;overflow=hidden;fillColor=none;top=0;left=0;bottom=0;right=0;pointerEvents=1;fontSize=16;" vertex="1" parent="39">
                    <mxGeometry width="50" height="26" as="geometry">
                        <mxRectangle width="50" height="26" as="alternateBounds"/>
                    </mxGeometry>
                </mxCell>
                <mxCell id="41" value="#" style="shape=partialRectangle;html=1;whiteSpace=wrap;connectable=0;strokeColor=inherit;overflow=hidden;fillColor=none;top=0;left=0;bottom=0;right=0;pointerEvents=1;fontSize=16;" vertex="1" parent="39">
                    <mxGeometry x="50" width="50" height="26" as="geometry">
                        <mxRectangle width="50" height="26" as="alternateBounds"/>
                    </mxGeometry>
                </mxCell>
                <mxCell id="42" value="1" style="shape=partialRectangle;html=1;whiteSpace=wrap;connectable=0;strokeColor=inherit;overflow=hidden;fillColor=none;top=0;left=0;bottom=0;right=0;pointerEvents=1;fontSize=16;" vertex="1" parent="39">
                    <mxGeometry x="100" width="50" height="26" as="geometry">
                        <mxRectangle width="50" height="26" as="alternateBounds"/>
                    </mxGeometry>
                </mxCell>
                <mxCell id="43" value="#" style="shape=partialRectangle;html=1;whiteSpace=wrap;connectable=0;strokeColor=inherit;overflow=hidden;fillColor=none;top=0;left=0;bottom=0;right=0;pointerEvents=1;fontSize=16;" vertex="1" parent="39">
                    <mxGeometry x="150" width="50" height="26" as="geometry">
                        <mxRectangle width="50" height="26" as="alternateBounds"/>
                    </mxGeometry>
                </mxCell>
                <mxCell id="44" value="#" style="shape=partialRectangle;html=1;whiteSpace=wrap;connectable=0;strokeColor=inherit;overflow=hidden;fillColor=none;top=0;left=0;bottom=0;right=0;pointerEvents=1;fontSize=16;" vertex="1" parent="39">
                    <mxGeometry x="200" width="50" height="26" as="geometry">
                        <mxRectangle width="50" height="26" as="alternateBounds"/>
                    </mxGeometry>
                </mxCell>
                <mxCell id="45" value="X&lt;sup&gt;opt&lt;/sup&gt;" style="shape=table;startSize=30;container=1;collapsible=0;childLayout=tableLayout;strokeColor=default;fontSize=16;fontStyle=3;html=1;" vertex="1" parent="1">
                    <mxGeometry x="1180" y="180" width="250" height="220" as="geometry"/>
                </mxCell>
                <mxCell id="46" value="" style="shape=tableRow;horizontal=0;startSize=0;swimlaneHead=0;swimlaneBody=0;strokeColor=inherit;top=0;left=0;bottom=0;right=0;collapsible=0;dropTarget=0;fillColor=none;points=[[0,0.5],[1,0.5]];portConstraint=eastwest;fontSize=16;" vertex="1" parent="45">
                    <mxGeometry y="30" width="250" height="26" as="geometry"/>
                </mxCell>
                <mxCell id="47" value="x1" style="shape=partialRectangle;html=1;whiteSpace=wrap;connectable=0;strokeColor=inherit;overflow=hidden;fillColor=none;top=0;left=0;bottom=0;right=0;pointerEvents=1;fontSize=16;fontStyle=1" vertex="1" parent="46">
                    <mxGeometry width="50" height="26" as="geometry">
                        <mxRectangle width="50" height="26" as="alternateBounds"/>
                    </mxGeometry>
                </mxCell>
                <mxCell id="48" value="x2" style="shape=partialRectangle;html=1;whiteSpace=wrap;connectable=0;strokeColor=inherit;overflow=hidden;fillColor=none;top=0;left=0;bottom=0;right=0;pointerEvents=1;fontSize=16;fontStyle=1" vertex="1" parent="46">
                    <mxGeometry x="50" width="50" height="26" as="geometry">
                        <mxRectangle width="50" height="26" as="alternateBounds"/>
                    </mxGeometry>
                </mxCell>
                <mxCell id="49" value="x3" style="shape=partialRectangle;html=1;whiteSpace=wrap;connectable=0;strokeColor=inherit;overflow=hidden;fillColor=none;top=0;left=0;bottom=0;right=0;pointerEvents=1;fontSize=16;fontStyle=1" vertex="1" parent="46">
                    <mxGeometry x="100" width="50" height="26" as="geometry">
                        <mxRectangle width="50" height="26" as="alternateBounds"/>
                    </mxGeometry>
                </mxCell>
                <mxCell id="50" value="x3_1" style="shape=partialRectangle;html=1;whiteSpace=wrap;connectable=0;strokeColor=inherit;overflow=hidden;fillColor=none;top=0;left=0;bottom=0;right=0;pointerEvents=1;fontSize=16;fontStyle=1" vertex="1" parent="46">
                    <mxGeometry x="150" width="50" height="26" as="geometry">
                        <mxRectangle width="50" height="26" as="alternateBounds"/>
                    </mxGeometry>
                </mxCell>
                <mxCell id="51" value="x3_2" style="shape=partialRectangle;html=1;whiteSpace=wrap;connectable=0;strokeColor=inherit;overflow=hidden;fillColor=none;top=0;left=0;bottom=0;right=0;pointerEvents=1;fontSize=16;fontStyle=1" vertex="1" parent="46">
                    <mxGeometry x="200" width="50" height="26" as="geometry">
                        <mxRectangle width="50" height="26" as="alternateBounds"/>
                    </mxGeometry>
                </mxCell>
                <mxCell id="52" value="" style="shape=tableRow;horizontal=0;startSize=0;swimlaneHead=0;swimlaneBody=0;strokeColor=inherit;top=0;left=0;bottom=0;right=0;collapsible=0;dropTarget=0;fillColor=none;points=[[0,0.5],[1,0.5]];portConstraint=eastwest;fontSize=16;" vertex="1" parent="45">
                    <mxGeometry y="56" width="250" height="29" as="geometry"/>
                </mxCell>
                <mxCell id="53" value="1" style="shape=partialRectangle;html=1;whiteSpace=wrap;connectable=0;strokeColor=inherit;overflow=hidden;fillColor=none;top=0;left=0;bottom=0;right=0;pointerEvents=1;fontSize=16;" vertex="1" parent="52">
                    <mxGeometry width="50" height="29" as="geometry">
                        <mxRectangle width="50" height="29" as="alternateBounds"/>
                    </mxGeometry>
                </mxCell>
                <mxCell id="54" value="0" style="shape=partialRectangle;html=1;whiteSpace=wrap;connectable=0;strokeColor=inherit;overflow=hidden;fillColor=none;top=0;left=0;bottom=0;right=0;pointerEvents=1;fontSize=16;" vertex="1" parent="52">
                    <mxGeometry x="50" width="50" height="29" as="geometry">
                        <mxRectangle width="50" height="29" as="alternateBounds"/>
                    </mxGeometry>
                </mxCell>
                <mxCell id="55" value="0" style="shape=partialRectangle;html=1;whiteSpace=wrap;connectable=0;strokeColor=inherit;overflow=hidden;fillColor=none;top=0;left=0;bottom=0;right=0;pointerEvents=1;fontSize=16;" vertex="1" parent="52">
                    <mxGeometry x="100" width="50" height="29" as="geometry">
                        <mxRectangle width="50" height="29" as="alternateBounds"/>
                    </mxGeometry>
                </mxCell>
                <mxCell id="56" value="0" style="shape=partialRectangle;html=1;whiteSpace=wrap;connectable=0;strokeColor=inherit;overflow=hidden;fillColor=none;top=0;left=0;bottom=0;right=0;pointerEvents=1;fontSize=16;" vertex="1" parent="52">
                    <mxGeometry x="150" width="50" height="29" as="geometry">
                        <mxRectangle width="50" height="29" as="alternateBounds"/>
                    </mxGeometry>
                </mxCell>
                <mxCell id="57" value="0" style="shape=partialRectangle;html=1;whiteSpace=wrap;connectable=0;strokeColor=inherit;overflow=hidden;fillColor=none;top=0;left=0;bottom=0;right=0;pointerEvents=1;fontSize=16;" vertex="1" parent="52">
                    <mxGeometry x="200" width="50" height="29" as="geometry">
                        <mxRectangle width="50" height="29" as="alternateBounds"/>
                    </mxGeometry>
                </mxCell>
                <mxCell id="58" value="" style="shape=tableRow;horizontal=0;startSize=0;swimlaneHead=0;swimlaneBody=0;strokeColor=inherit;top=0;left=0;bottom=0;right=0;collapsible=0;dropTarget=0;fillColor=none;points=[[0,0.5],[1,0.5]];portConstraint=eastwest;fontSize=16;" vertex="1" parent="45">
                    <mxGeometry y="85" width="250" height="27" as="geometry"/>
                </mxCell>
                <mxCell id="59" value="1" style="shape=partialRectangle;html=1;whiteSpace=wrap;connectable=0;strokeColor=inherit;overflow=hidden;fillColor=none;top=0;left=0;bottom=0;right=0;pointerEvents=1;fontSize=16;" vertex="1" parent="58">
                    <mxGeometry width="50" height="27" as="geometry">
                        <mxRectangle width="50" height="27" as="alternateBounds"/>
                    </mxGeometry>
                </mxCell>
                <mxCell id="60" value="1" style="shape=partialRectangle;html=1;whiteSpace=wrap;connectable=0;strokeColor=inherit;overflow=hidden;fillColor=none;top=0;left=0;bottom=0;right=0;pointerEvents=1;fontSize=16;" vertex="1" parent="58">
                    <mxGeometry x="50" width="50" height="27" as="geometry">
                        <mxRectangle width="50" height="27" as="alternateBounds"/>
                    </mxGeometry>
                </mxCell>
                <mxCell id="61" value="0" style="shape=partialRectangle;html=1;whiteSpace=wrap;connectable=0;strokeColor=inherit;overflow=hidden;fillColor=none;top=0;left=0;bottom=0;right=0;pointerEvents=1;fontSize=16;" vertex="1" parent="58">
                    <mxGeometry x="100" width="50" height="27" as="geometry">
                        <mxRectangle width="50" height="27" as="alternateBounds"/>
                    </mxGeometry>
                </mxCell>
                <mxCell id="62" value="0" style="shape=partialRectangle;html=1;whiteSpace=wrap;connectable=0;strokeColor=inherit;overflow=hidden;fillColor=none;top=0;left=0;bottom=0;right=0;pointerEvents=1;fontSize=16;" vertex="1" parent="58">
                    <mxGeometry x="150" width="50" height="27" as="geometry">
                        <mxRectangle width="50" height="27" as="alternateBounds"/>
                    </mxGeometry>
                </mxCell>
                <mxCell id="63" value="0" style="shape=partialRectangle;html=1;whiteSpace=wrap;connectable=0;strokeColor=inherit;overflow=hidden;fillColor=none;top=0;left=0;bottom=0;right=0;pointerEvents=1;fontSize=16;" vertex="1" parent="58">
                    <mxGeometry x="200" width="50" height="27" as="geometry">
                        <mxRectangle width="50" height="27" as="alternateBounds"/>
                    </mxGeometry>
                </mxCell>
                <mxCell id="64" style="shape=tableRow;horizontal=0;startSize=0;swimlaneHead=0;swimlaneBody=0;strokeColor=inherit;top=0;left=0;bottom=0;right=0;collapsible=0;dropTarget=0;fillColor=none;points=[[0,0.5],[1,0.5]];portConstraint=eastwest;fontSize=16;" vertex="1" parent="45">
                    <mxGeometry y="112" width="250" height="26" as="geometry"/>
                </mxCell>
                <mxCell id="65" value="1" style="shape=partialRectangle;html=1;whiteSpace=wrap;connectable=0;strokeColor=inherit;overflow=hidden;fillColor=none;top=0;left=0;bottom=0;right=0;pointerEvents=1;fontSize=16;" vertex="1" parent="64">
                    <mxGeometry width="50" height="26" as="geometry">
                        <mxRectangle width="50" height="26" as="alternateBounds"/>
                    </mxGeometry>
                </mxCell>
                <mxCell id="66" value="1" style="shape=partialRectangle;html=1;whiteSpace=wrap;connectable=0;strokeColor=inherit;overflow=hidden;fillColor=none;top=0;left=0;bottom=0;right=0;pointerEvents=1;fontSize=16;" vertex="1" parent="64">
                    <mxGeometry x="50" width="50" height="26" as="geometry">
                        <mxRectangle width="50" height="26" as="alternateBounds"/>
                    </mxGeometry>
                </mxCell>
                <mxCell id="67" value="0" style="shape=partialRectangle;html=1;whiteSpace=wrap;connectable=0;strokeColor=inherit;overflow=hidden;fillColor=none;top=0;left=0;bottom=0;right=0;pointerEvents=1;fontSize=16;" vertex="1" parent="64">
                    <mxGeometry x="100" width="50" height="26" as="geometry">
                        <mxRectangle width="50" height="26" as="alternateBounds"/>
                    </mxGeometry>
                </mxCell>
                <mxCell id="68" value="0" style="shape=partialRectangle;html=1;whiteSpace=wrap;connectable=0;strokeColor=inherit;overflow=hidden;fillColor=none;top=0;left=0;bottom=0;right=0;pointerEvents=1;fontSize=16;" vertex="1" parent="64">
                    <mxGeometry x="150" width="50" height="26" as="geometry">
                        <mxRectangle width="50" height="26" as="alternateBounds"/>
                    </mxGeometry>
                </mxCell>
                <mxCell id="69" value="&lt;div&gt;0&lt;/div&gt;" style="shape=partialRectangle;html=1;whiteSpace=wrap;connectable=0;strokeColor=inherit;overflow=hidden;fillColor=none;top=0;left=0;bottom=0;right=0;pointerEvents=1;fontSize=16;" vertex="1" parent="64">
                    <mxGeometry x="200" width="50" height="26" as="geometry">
                        <mxRectangle width="50" height="26" as="alternateBounds"/>
                    </mxGeometry>
                </mxCell>
                <mxCell id="70" style="shape=tableRow;horizontal=0;startSize=0;swimlaneHead=0;swimlaneBody=0;strokeColor=inherit;top=0;left=0;bottom=0;right=0;collapsible=0;dropTarget=0;fillColor=none;points=[[0,0.5],[1,0.5]];portConstraint=eastwest;fontSize=16;" vertex="1" parent="45">
                    <mxGeometry y="138" width="250" height="27" as="geometry"/>
                </mxCell>
                <mxCell id="71" value="1" style="shape=partialRectangle;html=1;whiteSpace=wrap;connectable=0;strokeColor=inherit;overflow=hidden;fillColor=none;top=0;left=0;bottom=0;right=0;pointerEvents=1;fontSize=16;" vertex="1" parent="70">
                    <mxGeometry width="50" height="27" as="geometry">
                        <mxRectangle width="50" height="27" as="alternateBounds"/>
                    </mxGeometry>
                </mxCell>
                <mxCell id="72" value="0" style="shape=partialRectangle;html=1;whiteSpace=wrap;connectable=0;strokeColor=inherit;overflow=hidden;fillColor=none;top=0;left=0;bottom=0;right=0;pointerEvents=1;fontSize=16;" vertex="1" parent="70">
                    <mxGeometry x="50" width="50" height="27" as="geometry">
                        <mxRectangle width="50" height="27" as="alternateBounds"/>
                    </mxGeometry>
                </mxCell>
                <mxCell id="73" value="1" style="shape=partialRectangle;html=1;whiteSpace=wrap;connectable=0;strokeColor=inherit;overflow=hidden;fillColor=none;top=0;left=0;bottom=0;right=0;pointerEvents=1;fontSize=16;" vertex="1" parent="70">
                    <mxGeometry x="100" width="50" height="27" as="geometry">
                        <mxRectangle width="50" height="27" as="alternateBounds"/>
                    </mxGeometry>
                </mxCell>
                <mxCell id="74" value="0" style="shape=partialRectangle;html=1;whiteSpace=wrap;connectable=0;strokeColor=inherit;overflow=hidden;fillColor=none;top=0;left=0;bottom=0;right=0;pointerEvents=1;fontSize=16;" vertex="1" parent="70">
                    <mxGeometry x="150" width="50" height="27" as="geometry">
                        <mxRectangle width="50" height="27" as="alternateBounds"/>
                    </mxGeometry>
                </mxCell>
                <mxCell id="75" value="1" style="shape=partialRectangle;html=1;whiteSpace=wrap;connectable=0;strokeColor=inherit;overflow=hidden;fillColor=none;top=0;left=0;bottom=0;right=0;pointerEvents=1;fontSize=16;" vertex="1" parent="70">
                    <mxGeometry x="200" width="50" height="27" as="geometry">
                        <mxRectangle width="50" height="27" as="alternateBounds"/>
                    </mxGeometry>
                </mxCell>
                <mxCell id="76" style="shape=tableRow;horizontal=0;startSize=0;swimlaneHead=0;swimlaneBody=0;strokeColor=inherit;top=0;left=0;bottom=0;right=0;collapsible=0;dropTarget=0;fillColor=none;points=[[0,0.5],[1,0.5]];portConstraint=eastwest;fontSize=16;" vertex="1" parent="45">
                    <mxGeometry y="165" width="250" height="29" as="geometry"/>
                </mxCell>
                <mxCell id="77" value="1" style="shape=partialRectangle;html=1;whiteSpace=wrap;connectable=0;strokeColor=inherit;overflow=hidden;fillColor=none;top=0;left=0;bottom=0;right=0;pointerEvents=1;fontSize=16;" vertex="1" parent="76">
                    <mxGeometry width="50" height="29" as="geometry">
                        <mxRectangle width="50" height="29" as="alternateBounds"/>
                    </mxGeometry>
                </mxCell>
                <mxCell id="78" value="1" style="shape=partialRectangle;html=1;whiteSpace=wrap;connectable=0;strokeColor=inherit;overflow=hidden;fillColor=none;top=0;left=0;bottom=0;right=0;pointerEvents=1;fontSize=16;" vertex="1" parent="76">
                    <mxGeometry x="50" width="50" height="29" as="geometry">
                        <mxRectangle width="50" height="29" as="alternateBounds"/>
                    </mxGeometry>
                </mxCell>
                <mxCell id="79" value="1" style="shape=partialRectangle;html=1;whiteSpace=wrap;connectable=0;strokeColor=inherit;overflow=hidden;fillColor=none;top=0;left=0;bottom=0;right=0;pointerEvents=1;fontSize=16;" vertex="1" parent="76">
                    <mxGeometry x="100" width="50" height="29" as="geometry">
                        <mxRectangle width="50" height="29" as="alternateBounds"/>
                    </mxGeometry>
                </mxCell>
                <mxCell id="80" value="1" style="shape=partialRectangle;html=1;whiteSpace=wrap;connectable=0;strokeColor=inherit;overflow=hidden;fillColor=none;top=0;left=0;bottom=0;right=0;pointerEvents=1;fontSize=16;" vertex="1" parent="76">
                    <mxGeometry x="150" width="50" height="29" as="geometry">
                        <mxRectangle width="50" height="29" as="alternateBounds"/>
                    </mxGeometry>
                </mxCell>
                <mxCell id="81" value="0" style="shape=partialRectangle;html=1;whiteSpace=wrap;connectable=0;strokeColor=inherit;overflow=hidden;fillColor=none;top=0;left=0;bottom=0;right=0;pointerEvents=1;fontSize=16;" vertex="1" parent="76">
                    <mxGeometry x="200" width="50" height="29" as="geometry">
                        <mxRectangle width="50" height="29" as="alternateBounds"/>
                    </mxGeometry>
                </mxCell>
                <mxCell id="82" style="shape=tableRow;horizontal=0;startSize=0;swimlaneHead=0;swimlaneBody=0;strokeColor=inherit;top=0;left=0;bottom=0;right=0;collapsible=0;dropTarget=0;fillColor=none;points=[[0,0.5],[1,0.5]];portConstraint=eastwest;fontSize=16;" vertex="1" parent="45">
                    <mxGeometry y="194" width="250" height="26" as="geometry"/>
                </mxCell>
                <mxCell id="83" value="1" style="shape=partialRectangle;html=1;whiteSpace=wrap;connectable=0;strokeColor=inherit;overflow=hidden;fillColor=none;top=0;left=0;bottom=0;right=0;pointerEvents=1;fontSize=16;" vertex="1" parent="82">
                    <mxGeometry width="50" height="26" as="geometry">
                        <mxRectangle width="50" height="26" as="alternateBounds"/>
                    </mxGeometry>
                </mxCell>
                <mxCell id="84" value="1" style="shape=partialRectangle;html=1;whiteSpace=wrap;connectable=0;strokeColor=inherit;overflow=hidden;fillColor=none;top=0;left=0;bottom=0;right=0;pointerEvents=1;fontSize=16;" vertex="1" parent="82">
                    <mxGeometry x="50" width="50" height="26" as="geometry">
                        <mxRectangle width="50" height="26" as="alternateBounds"/>
                    </mxGeometry>
                </mxCell>
                <mxCell id="85" value="1" style="shape=partialRectangle;html=1;whiteSpace=wrap;connectable=0;strokeColor=inherit;overflow=hidden;fillColor=none;top=0;left=0;bottom=0;right=0;pointerEvents=1;fontSize=16;" vertex="1" parent="82">
                    <mxGeometry x="100" width="50" height="26" as="geometry">
                        <mxRectangle width="50" height="26" as="alternateBounds"/>
                    </mxGeometry>
                </mxCell>
                <mxCell id="86" value="1" style="shape=partialRectangle;html=1;whiteSpace=wrap;connectable=0;strokeColor=inherit;overflow=hidden;fillColor=none;top=0;left=0;bottom=0;right=0;pointerEvents=1;fontSize=16;" vertex="1" parent="82">
                    <mxGeometry x="150" width="50" height="26" as="geometry">
                        <mxRectangle width="50" height="26" as="alternateBounds"/>
                    </mxGeometry>
                </mxCell>
                <mxCell id="87" value="1" style="shape=partialRectangle;html=1;whiteSpace=wrap;connectable=0;strokeColor=inherit;overflow=hidden;fillColor=none;top=0;left=0;bottom=0;right=0;pointerEvents=1;fontSize=16;" vertex="1" parent="82">
                    <mxGeometry x="200" width="50" height="26" as="geometry">
                        <mxRectangle width="50" height="26" as="alternateBounds"/>
                    </mxGeometry>
                </mxCell>
                <mxCell id="88" value="&lt;span style=&quot;color: rgb(240, 240, 240); font-family: Helvetica; font-size: 16px; font-style: normal; font-variant-ligatures: normal; font-variant-caps: normal; font-weight: 400; letter-spacing: normal; orphans: 2; text-align: center; text-indent: 0px; text-transform: none; widows: 2; word-spacing: 0px; -webkit-text-stroke-width: 0px; background-color: rgb(42, 37, 47); text-decoration-thickness: initial; text-decoration-style: initial; text-decoration-color: initial; float: none; display: inline !important;&quot;&gt;&amp;nbsp; #&amp;nbsp; &amp;nbsp;non-null value&lt;br&gt;&amp;nbsp; -&amp;nbsp; &amp;nbsp; null value&lt;br&gt;&lt;/span&gt;" style="text;whiteSpace=wrap;html=1;fillColor=default;strokeColor=default;spacingTop=2;spacingRight=3;" vertex="1" parent="1">
                    <mxGeometry x="960" y="395" width="150" height="55" as="geometry"/>
                </mxCell>
            </root>
        </mxGraphModel>
    </diagram>
</mxfile>